<?xml version="1.0" standalone="no"?>
<!DOCTYPE svg PUBLIC "-//W3C//DTD SVG 20010904//EN"
 "http://www.w3.org/TR/2001/REC-SVG-20010904/DTD/svg10.dtd">
<svg version="1.0" xmlns="http://www.w3.org/2000/svg"
 width="1280.000000pt" height="720.000000pt" viewBox="0 0 1280.000000 720.000000"
 preserveAspectRatio="xMidYMid meet">

<g transform="translate(0.000000,720.000000) scale(0.100000,-0.100000)"
fill="#000000" stroke="none">
<path d="M8385 6730 c-3 -5 3 -10 14 -10 11 0 23 5 26 10 3 6 -3 10 -14 10
-11 0 -23 -4 -26 -10z"/>
<path d="M8348 6713 c7 -3 16 -2 19 1 4 3 -2 6 -13 5 -11 0 -14 -3 -6 -6z"/>
<path d="M8496 6711 c14 -13 74 -31 103 -31 14 0 43 6 64 14 l39 13 -69 6
c-95 9 -149 9 -137 -2z"/>
<path d="M8240 6698 c-19 -5 -45 -14 -57 -20 -23 -11 -37 -44 -22 -54 5 -3 7
-9 4 -14 -2 -4 0 -22 6 -39 8 -22 8 -40 -1 -66 -13 -40 -5 -61 12 -31 12 22
67 46 104 46 29 0 24 -14 -4 -16 -44 -2 -81 -18 -93 -40 -24 -46 -41 -25 -59
73 -7 39 -10 80 -7 92 13 50 -55 -3 -88 -69 -14 -27 -29 -51 -35 -55 -15 -9
-12 -25 4 -25 9 0 12 -8 8 -25 -2 -15 0 -25 7 -25 6 0 11 5 11 11 0 5 5 7 10
4 6 -3 10 -17 10 -30 0 -13 8 -37 17 -53 15 -26 15 -34 5 -54 -7 -13 -22 -30
-34 -37 -11 -7 -17 -8 -14 -3 3 6 -1 12 -9 16 -8 3 -15 12 -15 21 0 28 -18 15
-45 -32 -39 -68 -39 -148 -2 -197 15 -19 27 -39 27 -45 0 -5 14 -18 30 -28 17
-10 28 -23 25 -31 -2 -7 0 -10 5 -7 6 3 10 2 10 -4 0 -13 -35 -35 -82 -52 -45
-16 -50 -35 -26 -111 6 -21 15 -38 20 -38 5 0 16 -7 24 -15 14 -13 14 -16 0
-21 -9 -3 -23 0 -32 7 -24 20 -34 -5 -34 -88 0 -58 3 -73 15 -73 20 0 19 -37
-2 -48 -18 -10 -16 -28 19 -148 11 -39 10 -41 -23 -72 -69 -64 -127 -93 -83
-42 11 13 9 15 -9 17 -12 1 -37 5 -56 9 -40 8 -150 -9 -241 -37 -61 -19 -66
-23 -89 -69 -14 -27 -35 -59 -48 -70 -13 -11 -23 -27 -23 -36 0 -11 -5 -14
-16 -10 -9 3 -23 6 -31 6 -13 0 -13 3 -3 15 7 8 18 15 24 15 6 0 17 10 25 21
12 20 11 21 -8 16 -30 -7 -26 0 12 23 17 11 25 20 17 20 -13 0 -13 1 0 10 12
8 10 10 -10 10 -32 0 -50 -17 -50 -46 0 -13 -5 -26 -10 -29 -6 -4 -20 -29 -32
-56 -12 -27 -26 -49 -31 -49 -10 0 -4 24 25 98 11 29 18 55 15 58 -11 11 -27
-7 -27 -30 0 -12 -4 -26 -9 -31 -5 -6 -16 -36 -25 -68 -9 -32 -21 -55 -26 -52
-6 4 -17 0 -25 -7 -43 -39 -40 -40 -112 13 -37 28 -74 53 -81 56 -7 3 -19 18
-28 34 -11 22 -22 29 -43 29 -16 0 -33 -6 -39 -12 -5 -7 -49 -85 -97 -173 -48
-88 -98 -172 -113 -187 -14 -15 -23 -31 -19 -34 9 -10 -22 -66 -33 -59 -6 4
-10 1 -10 -4 0 -6 -12 -11 -27 -11 -16 0 -40 -10 -54 -23 -26 -22 -106 -157
-93 -157 3 0 1 -7 -6 -15 -14 -16 -34 -10 -24 7 5 8 1 9 -10 5 -10 -4 -24 -7
-31 -7 -20 0 -75 -59 -75 -81 0 -10 -4 -19 -10 -19 -5 0 -10 -7 -10 -15 0 -8
-6 -15 -12 -15 -9 0 -9 -3 1 -9 10 -7 38 3 90 31 78 41 97 59 86 81 -4 6 0 4
8 -5 8 -10 22 -18 32 -18 23 0 105 39 105 50 0 4 10 6 21 3 21 -6 21 -7 3 -21
-17 -13 -14 -14 36 -9 30 3 70 13 87 22 18 9 45 15 60 13 21 -2 7 -10 -58 -30
-47 -15 -101 -39 -120 -52 -19 -14 -50 -32 -69 -41 -19 -9 -44 -21 -55 -27
-16 -8 -18 -8 -7 3 14 15 16 49 3 49 -11 0 -81 -109 -81 -127 0 -6 -4 -14 -9
-17 -5 -4 -7 3 -4 14 3 11 1 20 -3 20 -19 0 -34 -17 -49 -53 -18 -43 -28 -49
-19 -9 6 24 5 25 -8 14 -12 -9 -18 -10 -23 -2 -5 8 -12 5 -21 -7 -13 -16 -16
-17 -26 -2 -10 14 -14 12 -37 -15 -15 -17 -33 -44 -41 -61 -17 -35 -44 -65
-60 -65 -5 0 -10 -7 -10 -15 0 -18 17 -20 23 -2 3 9 7 9 17 0 7 -6 10 -19 7
-27 -7 -17 -37 -22 -37 -6 0 6 -6 10 -14 10 -19 0 -28 28 -16 50 7 12 7 21 0
25 -14 9 -23 -39 -16 -88 15 -99 120 -285 202 -356 63 -55 111 -74 204 -79
104 -5 198 20 276 72 60 41 192 102 200 93 4 -3 -4 -27 -16 -52 -58 -121 -213
-326 -336 -444 -81 -79 -103 -121 -79 -157 22 -33 64 -32 96 4 14 15 47 56 73
92 25 36 79 102 119 147 39 45 97 121 127 168 71 111 112 168 126 172 19 6 27
-119 29 -449 l1 -318 -66 -1 c-36 -1 -76 -4 -89 -8 -63 -17 -187 -326 -195
-484 -1 -25 -8 -42 -19 -48 -24 -14 -21 -29 4 -29 17 0 20 -4 15 -22 -37 -146
-35 -163 35 -213 49 -37 51 -37 125 -33 l74 5 0 -47 c0 -27 -11 -77 -26 -116
-14 -38 -32 -89 -40 -114 -30 -98 -61 -122 -154 -120 -47 0 -72 -19 -72 -56
-1 -16 -8 -71 -16 -123 l-14 -93 26 -68 c22 -54 33 -71 57 -80 16 -7 32 -16
34 -20 3 -5 -8 -61 -25 -125 -32 -122 -38 -181 -19 -169 8 4 9 -3 5 -22 -4
-18 -1 -36 7 -48 15 -20 37 -14 37 10 0 8 7 14 16 14 12 0 14 7 9 30 -5 25 -3
30 11 30 14 0 15 -3 6 -12 -8 -8 -8 -17 0 -32 8 -15 8 -21 -1 -24 -6 -2 -8 -9
-4 -15 11 -17 10 -30 -2 -43 -7 -8 -24 -4 -63 13 -60 26 -57 28 -67 -62 -3
-33 -9 -81 -14 -108 l-8 -47 38 -22 c41 -23 47 -37 52 -127 1 -32 -2 -45 -13
-48 -13 -4 -13 -3 0 6 9 6 10 11 3 11 -6 0 -10 11 -8 25 3 32 -5 37 -30 19
-13 -10 -16 -17 -9 -22 12 -8 26 -52 16 -52 -10 0 -41 78 -33 82 4 2 2 28 -3
58 l-10 55 -7 -55 c-10 -67 -45 -379 -54 -472 l-7 -68 629 0 629 0 23 121 c13
66 32 148 43 181 l21 60 61 -7 c33 -3 63 -9 66 -12 3 -2 4 -81 3 -174 l-1
-169 574 0 574 0 11 28 c6 15 8 44 6 65 -3 23 -1 37 6 37 7 0 7 4 -1 12 -17
17 -15 29 3 22 18 -7 19 0 5 27 -6 11 -21 19 -35 19 -14 0 -34 9 -46 21 -22
22 -19 40 3 21 7 -6 27 -12 43 -14 28 -3 30 -1 30 30 1 19 -4 32 -12 32 -7 0
-13 -9 -13 -20 0 -39 -37 -17 -42 25 -2 23 -8 30 -25 30 -27 0 -34 7 -49 51
-17 49 -9 66 30 62 31 -3 33 -8 21 -40 -5 -13 -2 -18 8 -18 14 0 34 -35 29
-52 -3 -11 32 -2 36 11 2 6 -3 23 -12 36 -19 28 -21 55 -4 55 6 0 3 9 -8 21
-19 21 -20 59 -3 70 6 3 4 21 -3 45 l-13 39 -55 -2 c-43 -2 -50 -1 -32 7 12 5
22 14 22 20 0 6 6 8 13 5 6 -4 3 1 -7 9 -24 20 -15 32 12 17 33 -17 49 -13 54
14 3 14 1 25 -4 25 -5 0 -6 5 -3 10 3 6 -2 11 -12 12 -10 1 -25 2 -33 3 -46 4
-70 17 -76 41 -4 16 -2 29 5 33 9 6 8 14 -2 34 -8 15 -18 23 -22 19 -5 -4 -5
1 -2 11 4 10 7 22 7 27 0 5 12 7 28 4 55 -10 62 -14 56 -38 -4 -16 -1 -23 10
-23 9 0 16 8 16 18 0 10 9 19 22 21 14 2 22 11 23 26 2 20 -2 22 -27 17 -21
-5 -30 -2 -34 10 -4 9 -1 21 6 25 8 5 9 13 4 23 -8 13 -12 13 -27 2 -18 -13
-18 -15 -1 -40 l17 -26 -29 5 c-16 2 -36 5 -44 5 -8 1 -28 12 -44 26 -33 28
-42 31 -49 13 -2 -7 -6 0 -9 15 -4 23 -1 30 17 37 12 5 25 16 29 26 6 16 8 16
22 -2 12 -15 14 -15 11 -3 -3 9 0 22 6 28 14 14 -6 31 -35 31 -10 0 -18 5 -18
10 0 6 5 10 10 10 6 0 10 7 10 16 0 8 -4 13 -9 9 -6 -3 -14 3 -20 12 -6 10
-11 13 -11 6 0 -7 -7 -10 -17 -6 -11 4 -14 3 -9 -5 4 -7 3 -12 -2 -12 -6 0
-12 7 -16 15 -6 18 2 45 15 45 5 0 9 7 9 15 0 8 -6 15 -14 15 -19 0 -27 13
-31 50 -3 25 1 33 25 45 20 10 30 23 30 38 0 13 6 29 13 36 10 10 9 12 -3 10
-8 -1 -27 3 -42 9 -34 14 -37 45 -8 82 25 32 25 37 -5 44 -16 4 -27 16 -31 34
-4 15 -11 33 -17 39 -6 9 -6 13 2 13 6 0 11 6 11 14 0 15 12 20 71 30 55 9 63
26 66 128 1 50 4 93 7 95 9 9 76 -38 103 -73 33 -44 42 -36 13 10 l-22 36 22
8 c21 8 20 10 -25 63 -58 68 -84 116 -92 176 l-6 46 59 -7 c32 -3 87 -9 120
-12 l62 -7 6 30 c9 41 24 325 19 341 -8 21 7 102 19 102 7 0 31 9 55 21 49 24
89 86 79 123 -3 11 -30 40 -61 63 -53 41 -71 73 -41 73 8 0 45 -13 83 -30 39
-16 100 -34 137 -40 50 -8 77 -19 112 -45 69 -53 123 -59 111 -13 -8 30 3 48
29 48 29 0 33 30 7 46 -10 6 -42 30 -70 53 -49 38 -52 43 -42 68 16 43 4 72
-28 70 -27 -2 -29 1 -32 45 -1 21 -2 21 -14 3 -13 -16 -14 -15 -15 14 0 17
-11 54 -23 82 -19 42 -27 49 -45 45 -22 -6 -60 24 -47 37 3 4 -1 13 -11 20
-15 11 -13 19 24 92 42 82 60 109 60 87 0 -7 3 -12 8 -12 4 0 7 16 8 35 1 50
13 58 52 35 66 -40 143 -257 112 -315 -14 -27 -7 -55 13 -55 13 0 58 63 91
127 22 43 21 156 -2 203 -9 19 -38 48 -63 65 -25 16 -66 48 -91 70 -25 22 -65
50 -89 62 -24 13 -38 23 -31 23 31 0 -3 19 -46 26 -58 8 -63 11 -55 30 5 14
19 15 97 9 57 -4 108 -14 136 -27 44 -20 135 -48 156 -48 6 0 11 16 12 35 1
20 4 40 7 45 3 4 1 18 -3 30 -20 54 26 207 79 265 36 40 51 94 44 159 -4 34
-14 72 -23 86 -18 28 -23 60 -10 60 18 0 7 21 -17 32 -23 10 -23 12 -7 24 15
12 14 13 -10 14 -16 0 -28 -4 -28 -10 0 -5 -17 -10 -37 -11 l-38 -1 33 -9 c18
-5 32 -15 31 -22 -3 -27 2 -37 21 -37 11 0 20 -3 20 -7 0 -16 -40 -73 -50 -73
-6 0 -10 -8 -9 -17 1 -10 1 -29 0 -43 l-1 -25 -18 30 c-29 47 -46 57 -76 45
-14 -5 -26 -13 -26 -17 0 -13 -59 -35 -75 -29 -8 3 -15 14 -15 25 0 19 -35 39
-47 27 -4 -3 -13 0 -21 7 -9 6 -13 7 -10 2 4 -6 -2 -16 -13 -23 -22 -14 -24
-9 -7 21 9 19 9 20 -3 11 -8 -6 -21 -14 -30 -17 -13 -4 -16 -1 -11 16 3 12 12
26 21 31 13 8 12 11 -9 16 -20 5 -24 12 -22 34 2 21 -2 29 -17 33 -14 3 -21
14 -21 28 0 19 4 22 23 18 20 -4 20 -3 5 9 -9 7 -25 18 -35 25 -16 10 -15 11
7 6 17 -3 21 -2 12 5 -10 7 -10 11 3 22 30 25 10 66 -37 72 l-26 3 28 90 c15
50 31 98 35 108 4 9 3 17 -3 17 -5 0 -25 -34 -43 -75 -52 -119 -56 -98 -10 56
12 38 27 61 104 158 48 61 48 69 -1 77 -42 7 -54 13 -47 23 3 5 -5 17 -17 26
l-23 16 22 18 c19 16 21 22 11 43 -7 14 -29 37 -50 52 l-37 27 20 52 c34 84
46 120 53 160 6 34 4 40 -26 67 -23 21 -42 30 -63 29 -16 -1 -60 6 -97 17 -37
10 -70 15 -74 11 -4 -3 10 -25 30 -47 50 -56 45 -64 -6 -11 -41 42 -148 101
-183 101 -9 0 -14 4 -11 9 6 9 -36 31 -59 31 -8 0 -15 5 -15 10 0 6 -7 10 -16
10 -8 0 -12 5 -8 11 6 11 39 8 79 -7 l20 -7 -20 24 -20 24 20 -15 c11 -8 45
-36 74 -62 30 -27 58 -48 61 -48 8 0 30 70 30 96 0 15 -18 27 -76 49 -41 17
-74 34 -72 39 2 5 -10 15 -27 22 -16 7 -23 13 -14 14 32 0 122 -20 152 -35 38
-19 34 -20 52 15 40 77 42 396 4 475 -19 39 -91 82 -186 110 -43 13 -73 24
-66 24 18 1 4 31 -15 31 -8 0 -13 3 -9 6 7 7 151 -23 182 -38 14 -7 13 -3 -5
11 -14 11 -31 21 -38 21 -7 0 -11 4 -8 9 7 11 43 3 74 -17 12 -8 22 -11 22 -8
0 3 -15 15 -32 26 -18 11 -33 25 -34 32 0 7 -2 21 -2 31 -2 24 -22 11 -22 -14
0 -10 -3 -19 -6 -19 -42 0 -159 27 -194 45 -43 23 -131 37 -225 37 -40 -1 -40
0 -8 7 17 5 39 15 47 24 14 13 7 15 -64 19 -58 2 -84 8 -97 20 -16 17 -16 19
2 32 18 13 18 14 -3 20 -42 14 -87 -21 -49 -38 9 -5 9 -7 0 -12 -8 -4 -10 -12
-5 -22 11 -21 -8 -60 -26 -54 -6 2 -12 0 -12 -6 0 -5 -20 -9 -45 -10 -25 0
-45 4 -45 9 0 12 -47 11 -55 -1 -3 -5 -14 -10 -23 -10 -13 0 -13 2 4 16 19 15
18 15 -3 11 -13 -3 -23 -1 -23 4 0 5 3 9 8 9 13 0 30 49 25 70 -4 16 -14 20
-43 20 -21 0 -41 -6 -43 -12 -4 -10 -6 -10 -6 -1 -1 17 15 25 78 38 37 7 49
13 36 16 -11 3 -36 2 -55 -3z m874 -379 c15 -7 28 -23 31 -40 4 -16 11 -29 16
-29 5 0 8 -3 8 -7 -4 -25 2 -66 9 -58 17 24 37 9 45 -35 10 -56 1 -260 -13
-274 -5 -5 -10 -20 -10 -32 0 -13 -5 -26 -10 -29 -6 -4 -8 -11 -5 -16 4 -5 -2
-9 -12 -9 -28 0 -150 43 -135 48 6 2 12 11 12 19 0 9 -6 13 -15 10 -8 -4 -17
-2 -20 3 -3 5 6 12 20 16 23 6 36 24 17 24 -5 0 -7 61 -4 135 4 134 4 135 -19
145 -23 10 -23 10 -1 6 21 -4 22 -1 22 65 0 76 8 83 64 58z m-1030 -65 c3 -8
2 -12 -4 -9 -6 3 -10 10 -10 16 0 14 7 11 14 -7z m922 -310 c-3 -9 -6 -21 -6
-27 0 -26 -17 -39 -41 -31 l-24 8 25 6 c26 6 35 38 15 52 -5 4 1 8 14 8 17 0
22 -4 17 -16z m-89 -116 c-3 -8 -6 -5 -6 6 -1 11 2 17 5 13 3 -3 4 -12 1 -19z
m160 -115 c12 -31 -14 -35 -35 -5 l-21 29 25 -5 c14 -2 28 -11 31 -19z m-427
-180 c0 -20 -3 -24 -11 -16 -7 7 -9 19 -6 27 10 24 17 19 17 -11z m542 -22
c154 -98 138 -343 -32 -480 l-45 -36 46 52 c65 74 83 115 84 194 0 55 -4 72
-28 107 -15 23 -50 58 -77 79 -39 29 -50 43 -50 65 0 25 21 47 46 48 5 0 31
-13 56 -29z m-472 -14 c0 -2 -14 -16 -31 -33 -26 -24 -30 -25 -20 -7 11 22 51
53 51 40z m597 -119 c-3 -8 -6 -5 -6 6 -1 11 2 17 5 13 3 -3 4 -12 1 -19z
m-704 -41 c-9 -26 -18 -45 -21 -43 -3 3 3 26 13 51 9 26 19 45 20 43 2 -2 -3
-25 -12 -51z m557 18 c13 -14 21 -25 18 -25 -2 0 -15 11 -28 25 -13 14 -21 25
-18 25 2 0 15 -11 28 -25z m157 -97 c-2 -13 -4 -5 -4 17 -1 22 1 32 4 23 2
-10 2 -28 0 -40z m-100 -60 c-3 -8 -6 -5 -6 6 -1 11 2 17 5 13 3 -3 4 -12 1
-19z m103 12 c0 -5 -2 -10 -4 -10 -3 0 -8 5 -11 10 -3 6 -1 10 4 10 6 0 11 -4
11 -10z m-1485 -269 c-1 -8 -8 -17 -15 -19 -10 -4 -12 4 -7 34 4 22 7 53 8 69
1 20 4 13 9 -20 4 -27 6 -57 5 -64z m-570 49 c3 -5 1 -10 -4 -10 -6 0 -11 -7
-11 -15 0 -8 -4 -15 -9 -15 -4 0 -6 11 -3 25 5 26 16 32 27 15z m1903 -26
c-111 -92 -145 -122 -178 -156 -34 -36 -95 -67 -106 -55 -3 3 13 18 36 33 23
16 82 63 132 104 50 41 102 83 117 92 45 30 45 20 -1 -18z m-1715 1 c-3 -9 -8
-14 -10 -11 -3 3 -2 9 2 15 9 16 15 13 8 -4z m1590 -148 c-33 -34 -110 -169
-174 -302 -38 -78 -58 -111 -58 -95 -1 38 129 284 190 360 30 37 56 66 58 64
3 -2 -5 -14 -16 -27z m-1597 -108 c4 -8 1 -8 -14 0 -12 6 -24 16 -28 22 -4 8
-1 8 14 0 12 -6 24 -16 28 -22z m99 -55 c0 -5 4 -16 8 -24 5 -8 0 -5 -11 8
-11 12 -24 22 -29 22 -5 0 -18 7 -29 15 -17 13 -15 13 21 1 22 -7 40 -17 40
-22z m66 -47 c-10 -9 -11 -8 -5 6 3 10 9 15 12 12 3 -3 0 -11 -7 -18z m187
-38 c59 -45 69 -61 17 -29 -19 12 -39 19 -45 15 -5 -3 -8 0 -5 7 5 14 -61 52
-76 43 -5 -3 -6 1 -3 9 8 20 44 6 112 -45z m-1192 42 c-3 -5 1 -14 9 -21 19
-16 19 -40 0 -40 -9 0 -12 6 -8 16 3 9 0 20 -7 24 -11 7 -7 30 6 30 3 0 3 -4
0 -9z m94 -51 c0 -16 -11 -42 -26 -59 -14 -17 -22 -31 -17 -31 4 0 2 -4 -6 -9
-7 -5 -25 -5 -40 -1 -26 7 -27 9 -19 67 1 7 5 10 10 7 16 -10 44 6 62 36 20
35 36 31 36 -10z m1960 27 c0 -2 -10 -12 -22 -23 l-23 -19 19 23 c18 21 26 27
26 19z m707 -52 c-6 -30 -12 -53 -14 -51 -7 6 9 106 17 106 3 0 2 -25 -3 -55z
m-1812 25 c-10 -11 -23 -20 -29 -20 -6 1 0 10 13 20 30 26 39 26 16 0z m24
-19 c-13 -11 -26 -17 -29 -14 -6 6 30 33 43 33 5 0 -1 -9 -14 -19z m-224 -16
l39 -19 -89 -12 c-130 -17 -145 -22 -193 -68 -46 -43 -132 -157 -132 -173 0
-6 -7 -24 -15 -41 -9 -17 -20 -50 -24 -74 -6 -27 -9 -33 -10 -18 -2 46 48 230
76 278 32 55 95 115 144 137 45 20 151 15 204 -10z m1261 6 c-3 -5 -38 -37
-78 -71 l-73 -62 75 71 c72 68 88 81 76 62z m-1016 -11 c0 -5 -5 -10 -11 -10
-5 0 -7 5 -4 10 3 6 8 10 11 10 2 0 4 -4 4 -10z m37 -20 c-1 -11 -7 -20 -14
-20 -16 0 -17 12 -1 28 16 16 17 15 15 -8z m1129 -37 c-8 -15 -15 -25 -16 -21
0 12 23 58 27 54 3 -2 -2 -17 -11 -33z m-1817 15 c-2 -2 -24 -21 -47 -43 -24
-22 -40 -32 -37 -22 9 23 0 22 -26 -4 -23 -23 -44 -21 -44 6 0 24 63 57 97 51
15 -3 30 -1 33 4 3 6 11 10 17 10 6 0 9 -1 7 -2z m61 -8 c0 -9 -102 -112 -106
-107 -8 7 39 87 51 87 7 0 15 6 18 13 5 14 37 19 37 7z m1360 -55 c20 -21 22
-28 12 -50 -17 -37 -29 -30 -28 18 1 41 0 42 -29 40 -22 -2 -26 0 -15 7 23 15
35 12 60 -15z m-635 5 c-3 -5 -11 -10 -16 -10 -6 0 -7 5 -4 10 3 6 11 10 16
10 6 0 7 -4 4 -10z m705 -34 c0 -13 -39 -65 -40 -53 0 4 7 18 16 31 10 16 12
26 5 31 -6 3 -11 11 -11 17 0 7 6 6 15 -2 8 -7 15 -18 15 -24z m-1679 1 c-12
-6 -20 -16 -17 -23 5 -13 -36 -64 -52 -64 -16 0 -8 34 13 60 25 31 57 50 69
42 6 -3 0 -10 -13 -15z m1966 -14 c-2 -10 -15 -55 -27 -101 -23 -83 -42 -109
-22 -30 6 24 16 67 22 96 7 28 17 52 22 52 6 0 8 -8 5 -17z m-937 -3 c0 -5 -7
-10 -16 -10 -8 0 -12 5 -9 10 3 6 10 10 16 10 5 0 9 -4 9 -10z m704 -35 c-15
-22 -15 -28 -3 -35 23 -15 4 -21 -29 -9 -40 14 -50 37 -13 31 22 -3 29 2 39
23 7 15 15 25 18 22 3 -3 -2 -17 -12 -32z m323 13 c-3 -8 -6 -5 -6 6 -1 11 2
17 5 13 3 -3 4 -12 1 -19z m513 -54 c0 -35 -4 -64 -8 -64 -10 0 -8 -27 3 -52
4 -10 3 -30 -3 -45 l-9 -28 -13 28 c-10 20 -11 33 -2 52 12 26 3 39 -22 29
-13 -5 -16 1 -15 27 0 19 3 28 6 21 9 -23 33 8 33 43 0 19 3 40 6 49 12 32 24
3 24 -60z m-1590 62 c0 -2 -7 -7 -16 -10 -8 -3 -12 -2 -9 4 6 10 25 14 25 6z
m549 -60 c-12 -26 -47 -33 -41 -8 1 7 -5 15 -13 18 -25 10 -17 27 9 20 14 -3
28 -1 32 5 14 23 25 -8 13 -35z m518 2 c-3 -8 -6 -5 -6 6 -1 11 2 17 5 13 3
-3 4 -12 1 -19z m-11 -82 c-9 -65 -21 -88 -31 -56 -4 12 -2 27 4 33 6 6 11 34
11 62 1 40 3 46 11 32 7 -11 8 -40 5 -71z m388 -42 c9 -25 7 -34 -8 -34 -19 0
-28 14 -20 34 8 20 20 20 28 0z m456 -4 c0 -5 -10 -10 -23 -10 -13 0 -34 -11
-47 -25 -26 -28 -83 -37 -60 -10 7 8 21 15 31 15 12 0 19 7 19 20 0 17 7 20
40 20 22 0 40 -4 40 -10z m-3390 -10 c0 -5 -5 -10 -11 -10 -5 0 -7 5 -4 10 3
6 8 10 11 10 2 0 4 -4 4 -10z m2148 -33 c22 -17 12 -25 -18 -14 -16 6 -30 17
-30 24 0 13 25 8 48 -10z m372 -31 c0 -40 -12 -86 -21 -80 -13 8 -11 84 2 84
5 0 7 5 4 10 -3 6 -1 10 4 10 6 0 11 -11 11 -24z m-1843 -43 c-3 -10 -5 -4 -5
12 0 17 2 24 5 18 2 -7 2 -21 0 -30z m1599 -25 l19 -21 -27 18 c-29 18 -34 25
-20 25 5 0 17 -10 28 -22z m-218 -31 c-16 -13 -41 -38 -57 -57 -24 -29 -29
-31 -24 -13 6 25 76 93 96 93 6 -1 0 -11 -15 -23z m888 -3 c-4 -9 -9 -15 -11
-12 -3 3 -3 13 1 22 4 9 9 15 11 12 3 -3 3 -13 -1 -22z m-526 -76 c0 -12 -6
-9 -26 13 -19 22 -19 22 4 8 12 -8 22 -17 22 -21z m-220 2 c0 -5 -2 -10 -4
-10 -3 0 -8 5 -11 10 -3 6 -1 10 4 10 6 0 11 -4 11 -10z m357 -57 c-3 -10 -5
-2 -5 17 0 19 2 27 5 18 2 -10 2 -26 0 -35z m43 -34 c0 -27 -3 -48 -8 -45 -7
4 -4 96 4 96 2 0 4 -23 4 -51z m-76 15 c5 -14 4 -15 -9 -4 -17 14 -19 20 -6
20 5 0 12 -7 15 -16z m1016 12 c0 -3 -4 -8 -10 -11 -5 -3 -10 -1 -10 4 0 6 5
11 10 11 6 0 10 -2 10 -4z m-1205 -36 c8 -13 -5 -13 -25 0 -13 8 -13 10 2 10
9 0 20 -4 23 -10z m460 -130 c11 -13 14 -20 6 -20 -7 0 -20 -8 -29 -17 -16
-16 -17 -15 -20 6 -4 26 4 51 16 51 5 0 17 -9 27 -20z m-410 -40 c3 -5 -3 -10
-14 -10 -19 0 -81 -64 -81 -84 0 -5 -7 -14 -16 -21 -11 -8 -19 -37 -24 -91
l-9 -79 4 87 c5 102 19 137 77 178 44 32 54 35 63 20z m787 -51 c-26 -28 -52
-60 -58 -70 -11 -21 -24 -16 -24 9 0 17 -79 90 -100 93 -27 4 83 16 157 17
l72 2 -47 -51z m-682 -4 c14 -17 0 -21 -17 -4 -13 13 -67 3 -59 -10 3 -5 -3
-16 -13 -25 -11 -10 -22 -28 -25 -42 -4 -13 -11 -24 -17 -24 -6 0 -8 4 -5 9 4
5 1 11 -5 13 -17 6 -1 47 29 75 29 27 92 32 112 8z m874 -44 c-7 -9 -24 13
-24 32 0 21 1 21 13 -3 8 -14 12 -27 11 -29z m-1133 15 c-7 -8 -20 -31 -30
-51 -18 -38 -18 -38 -23 -11 -3 15 -3 24 0 21 3 -3 13 9 23 25 11 17 24 30 30
30 8 0 8 -4 0 -14z m-95 -62 c-5 -12 -1 -14 16 -8 20 6 21 5 10 -8 -6 -8 -17
-53 -23 -99 -14 -105 -22 -117 -16 -23 5 58 2 76 -14 100 -18 28 -18 29 4 41
29 16 30 16 23 -3z m51 -71 c-3 -10 -5 -4 -5 12 0 17 2 24 5 18 2 -7 2 -21 0
-30z m-999 -35 c-8 -21 -16 -28 -37 -28 -15 0 -31 3 -35 8 -4 4 -13 7 -19 7
-7 0 -12 7 -12 15 0 9 16 19 44 26 25 6 47 17 49 24 4 11 7 9 12 -5 4 -11 3
-32 -2 -47z m520 -30 c-35 -87 -105 -299 -114 -345 -3 -18 -10 -33 -14 -33 -4
0 -4 17 0 38 12 54 88 304 100 324 6 10 10 23 10 28 0 13 32 59 41 60 4 0 -7
-33 -23 -72z m339 -13 c12 -8 29 -36 38 -62 9 -27 21 -56 26 -66 13 -25 5 -34
-52 -58 -27 -12 -49 -26 -49 -31 0 -6 28 -8 65 -6 37 2 60 -1 55 -6 -5 -5 -4
-20 1 -34 8 -21 7 -29 -7 -39 -20 -14 -20 -15 21 -36 17 -9 23 -16 15 -17 -9
0 -21 5 -28 12 -8 8 -15 9 -23 1 -7 -7 -1 -20 23 -43 l33 -33 -30 7 c-17 5
-57 10 -90 13 -33 3 -64 9 -69 14 -6 6 -6 9 2 9 7 0 12 4 12 10 0 15 -42 50
-62 50 -10 0 -18 5 -18 10 0 6 4 10 8 10 16 0 54 39 48 49 -4 5 -2 12 4 16 6
4 4 12 -5 22 -9 9 -13 23 -10 34 4 11 2 19 -4 19 -15 0 -11 90 3 90 6 0 22 18
36 40 27 45 28 45 57 25z m-1182 -5 c3 -5 1 -10 -4 -10 -6 0 -11 5 -11 10 0 6
2 10 4 10 3 0 8 -4 11 -10z m128 -52 c24 -25 47 -68 37 -68 -5 0 -10 4 -10 9
0 5 -9 13 -20 16 -26 8 -52 34 -45 46 8 13 24 11 38 -3z m752 -39 c-10 -15
-25 -10 -19 6 4 8 10 12 15 9 5 -3 7 -10 4 -15z m1420 -59 c3 -5 2 -10 -4 -10
-5 0 -13 5 -16 10 -3 6 -2 10 4 10 5 0 13 -4 16 -10z m-2125 -4 c0 -2 -7 -7
-16 -10 -8 -3 -12 -2 -9 4 6 10 25 14 25 6z m110 -6 c0 -14 46 -57 69 -65 10
-3 21 -14 24 -24 3 -12 18 -21 40 -25 20 -4 39 -11 43 -17 9 -16 -75 -3 -94
14 -10 8 -27 18 -39 21 -11 4 -24 13 -27 21 -3 9 -18 15 -36 15 -31 0 -38 17
-24 54 7 17 44 22 44 6z m570 -4 c0 -8 -4 -17 -10 -21 -5 -3 -7 -12 -3 -20 3
-9 -1 -22 -8 -31 -9 -12 -10 -17 -1 -23 6 -4 11 -22 10 -41 0 -19 2 -44 6 -56
4 -14 1 -26 -9 -34 -13 -11 -14 -10 -9 4 3 9 2 16 -4 16 -19 0 -19 -23 0 -42
10 -10 18 -28 18 -39 0 -19 -4 -21 -32 -14 -18 4 -44 8 -58 9 -14 0 -27 4 -30
7 -6 7 -122 39 -167 46 -26 4 -33 10 -33 29 0 28 16 40 24 18 4 -9 9 -14 13
-10 3 3 -2 15 -12 26 -10 11 -16 22 -13 25 5 6 74 -28 97 -48 22 -19 68 -29
76 -17 3 5 15 10 25 10 14 0 20 8 22 33 2 25 8 33 26 35 20 3 21 6 10 19 -10
13 -9 18 9 33 15 12 19 20 11 28 -17 17 0 72 23 72 10 0 19 -6 19 -14z m-630
-6 c0 -5 -2 -10 -4 -10 -3 0 -8 5 -11 10 -3 6 -1 10 4 10 6 0 11 -4 11 -10z
m-751 -61 c-14 -27 -28 -39 -48 -39 -17 0 -6 47 17 73 13 15 18 16 30 3 11
-11 12 -18 1 -37z m1831 1 c0 -5 -5 -10 -11 -10 -5 0 -7 5 -4 10 3 6 8 10 11
10 2 0 4 -4 4 -10z m240 -64 c8 -11 18 -29 22 -39 7 -16 4 -16 -24 4 -18 13
-26 25 -19 27 9 3 7 10 -6 25 -12 14 -13 18 -3 12 8 -5 22 -18 30 -29z m834 5
c-2 -3 -12 3 -22 13 -16 17 -16 18 5 5 12 -7 20 -15 17 -18z m-1229 -195 c18
-13 15 -15 -35 -30 -59 -18 -116 -21 -124 -7 -3 5 9 12 27 15 19 3 42 13 53
21 24 18 55 19 79 1z m1457 -63 c22 -19 24 -43 4 -43 -15 0 -46 26 -46 39 0 9
11 21 18 21 3 0 14 -7 24 -17z m-1918 -619 c24 -9 19 -21 -9 -26 -28 -6 -27
-6 -19 16 7 18 7 18 28 10z m212 -95 c3 -6 1 -15 -7 -20 -11 -6 -10 -11 4 -27
23 -25 26 -212 3 -193 -10 8 -16 9 -21 1 -3 -5 -15 -10 -25 -10 -17 0 -48 -36
-38 -45 2 -2 20 -8 41 -13 l38 -11 -5 30 c-2 16 0 29 5 29 15 0 10 -57 -6 -70
-20 -16 -19 -33 3 -53 23 -21 19 -109 -6 -100 -9 4 -13 2 -8 -5 12 -19 -12
-23 -49 -8 -25 11 -35 21 -33 33 2 12 -4 19 -20 21 -13 2 -27 14 -32 28 -11
28 -22 30 -40 9 -7 -9 -29 -15 -53 -15 l-40 0 6 108 c3 59 9 115 13 126 6 16
8 17 16 2 5 -9 6 -21 3 -26 -4 -6 8 -10 27 -10 23 0 29 3 19 9 -10 6 -1 11 28
16 28 5 47 15 58 31 8 13 22 24 29 24 8 0 14 5 14 11 0 5 -5 7 -12 3 -7 -4 -8
-3 -4 4 10 17 26 15 26 -3 0 -18 12 -19 29 -2 6 6 17 12 23 12 6 0 13 6 16 13
2 7 -2 10 -11 6 -10 -4 -21 4 -30 23 -9 15 -19 28 -24 27 -4 0 -16 1 -26 4
-15 4 -16 7 -5 13 7 5 23 9 34 9 12 0 24 7 28 15 6 18 22 20 32 4z m-381 -46
c24 -28 33 -69 40 -174 3 -52 1 -58 -24 -77 -30 -22 -56 -17 -41 8 14 21 12
30 -4 30 -11 0 -14 11 -11 42 2 23 -1 52 -6 65 -7 19 -5 23 11 23 25 0 26 15
2 32 -11 7 -21 25 -24 41 -5 24 -3 27 15 21 13 -4 17 -2 13 5 -14 21 5 11 29
-16z m310 -43 c-3 -5 -12 -10 -18 -10 -7 0 -6 4 3 10 19 12 23 12 15 0z m-183
-32 c-9 -9 -12 -7 -12 12 0 19 3 21 12 12 9 -9 9 -15 0 -24z m145 0 c-3 -8 -6
-5 -6 6 -1 11 2 17 5 13 3 -3 4 -12 1 -19z m-502 -58 c-3 -5 -14 -10 -23 -9
-14 0 -13 2 3 9 27 11 27 11 20 0z m927 -44 c9 -12 17 -26 18 -33 0 -12 -80
-43 -112 -43 -11 0 -16 -4 -13 -10 8 -12 73 -12 100 1 18 8 17 9 -5 5 -24 -5
-24 -4 -6 9 29 22 36 19 36 -17 1 -50 20 -68 72 -68 49 0 72 -17 62 -44 -4
-10 -18 -16 -35 -16 -34 0 -109 35 -109 51 0 5 -6 9 -12 7 -7 -1 -26 1 -42 6
-22 5 -26 10 -16 16 15 9 -4 16 -60 22 -14 2 -23 7 -22 12 2 5 0 12 -5 15 -4
3 -16 16 -27 28 -18 22 -18 23 11 51 16 17 38 32 49 35 36 8 98 -6 116 -27z
m-990 -28 c3 -7 -2 -19 -10 -28 -17 -21 -82 -206 -75 -214 3 -3 -2 -8 -11 -12
-9 -3 -16 -12 -16 -20 0 -8 -4 -14 -9 -14 -5 0 -23 -3 -41 -6 l-32 -7 18 28
c10 16 19 38 20 50 0 12 13 35 27 51 15 16 36 48 48 72 11 24 29 53 40 65 10
11 19 27 19 34 0 16 17 17 22 1z m1064 -219 c8 -14 -10 -11 -32 6 -18 13 -18
14 4 8 12 -3 25 -9 28 -14z m189 -71 c18 -8 24 -16 19 -27 -4 -9 -9 -31 -12
-49 -3 -26 -12 -36 -41 -49 -20 -9 -47 -15 -61 -14 -21 2 -22 0 -10 -9 10 -8
11 -10 2 -8 -8 2 -14 8 -14 13 0 6 -4 15 -10 22 -7 8 2 18 32 35 25 14 43 32
46 48 13 57 11 56 49 38z m-126 -17 c8 -14 7 -20 -3 -24 -18 -7 -26 1 -26 25
0 24 17 23 29 -1z m-1287 -58 c-7 -3 -24 -16 -38 -30 -32 -32 -54 -20 -23 13
13 14 33 24 48 23 14 0 20 -3 13 -6z m1618 -14 c-7 -11 -14 -19 -16 -16 -7 7
7 37 17 37 6 0 5 -9 -1 -21z m-850 -49 c0 -5 -5 -10 -11 -10 -5 0 -7 5 -4 10
3 6 8 10 11 10 2 0 4 -4 4 -10z m-845 -130 c3 -5 2 -10 -4 -10 -5 0 -13 5 -16
10 -3 6 -2 10 4 10 5 0 13 -4 16 -10z m1435 -65 c0 -8 -2 -15 -4 -15 -2 0 -6
7 -10 15 -3 8 -1 15 4 15 6 0 10 -7 10 -15z m-1390 -100 c0 -12 -29 -3 -34 10
-4 13 -2 14 14 5 11 -6 20 -13 20 -15z m1492 -50 c11 -14 10 -35 -1 -35 -13 0
-41 29 -41 41 0 12 32 8 42 -6z m-1544 -19 c-2 -1 -11 -7 -20 -14 -14 -11 -16
-10 -11 7 3 12 11 17 19 14 8 -3 14 -6 12 -7z m1496 -44 c11 -35 -11 -26 -23
9 -14 41 -14 43 3 27 7 -8 17 -24 20 -36z m163 32 c-3 -3 -12 -4 -19 -1 -8 3
-5 6 6 6 11 1 17 -2 13 -5z m-214 -29 c0 -6 -8 -12 -19 -14 -10 -2 -22 -8 -26
-15 -6 -8 -8 -8 -8 1 0 28 50 55 53 28z m-1773 -19 c0 -3 -4 -8 -10 -11 -5 -3
-10 -1 -10 4 0 6 5 11 10 11 6 0 10 -2 10 -4z m1797 -18 c-3 -8 -6 -5 -6 6 -1
11 2 17 5 13 3 -3 4 -12 1 -19z m-1646 -7 c-7 -5 -17 -15 -22 -22 -6 -10 -8
-8 -7 7 1 12 10 21 22 22 15 1 17 -1 7 -7z m-66 -42 c-10 -15 -25 -10 -19 6 4
8 10 12 15 9 5 -3 7 -10 4 -15z m-105 -29 c0 -5 -4 -10 -10 -10 -5 0 -10 5
-10 10 0 6 5 10 10 10 6 0 10 -4 10 -10z m187 -102 c-3 -7 -5 -2 -5 12 0 14 2
19 5 13 2 -7 2 -19 0 -25z m1728 22 c8 -13 -5 -13 -25 0 -13 8 -13 10 2 10 9
0 20 -4 23 -10z m-1815 -24 c0 -2 -9 -2 -20 1 -11 3 -20 9 -20 15 0 5 9 4 20
-2 11 -6 20 -12 20 -14z m-3 -92 c-3 -3 -12 -4 -19 -1 -8 3 -5 6 6 6 11 1 17
-2 13 -5z m4 -41 c-12 -20 -14 -14 -5 12 4 9 9 14 11 11 3 -2 0 -13 -6 -23z
m-81 -303 c0 -5 -2 -10 -4 -10 -3 0 -8 5 -11 10 -3 6 -1 10 4 10 6 0 11 -4 11
-10z m96 -17 c-7 -7 -26 7 -26 19 0 6 6 6 15 -2 9 -7 13 -15 11 -17z m-16 -39
c0 -12 -4 -26 -10 -29 -15 -10 -52 31 -47 52 4 15 5 14 6 -4 1 -26 31 -32 31
-7 0 8 -4 12 -10 9 -6 -3 -7 1 -4 10 9 22 34 0 34 -31z m-95 6 c3 -5 1 -10 -4
-10 -6 0 -11 5 -11 10 0 6 2 10 4 10 3 0 8 -4 11 -10z m2452 -166 c-9 -9 -28
6 -21 18 4 6 10 6 17 -1 6 -6 8 -13 4 -17z"/>
<path d="M9197 6173 c-3 -5 -1 -17 4 -28 7 -17 8 -17 8 8 1 27 -4 34 -12 20z"/>
<path d="M9212 6050 c0 -14 2 -19 5 -12 2 6 2 18 0 25 -3 6 -5 1 -5 -13z"/>
<path d="M7885 1799 c-4 -6 -5 -13 -2 -16 7 -7 27 6 27 18 0 12 -17 12 -25 -2z"/>
<path d="M7857 1774 c-14 -14 -7 -35 11 -32 9 2 17 10 17 17 0 16 -18 25 -28
15z"/>
<path d="M8295 6581 c-24 -5 -26 -8 -12 -13 19 -8 47 0 47 13 0 5 -1 8 -2 8
-2 -1 -16 -4 -33 -8z"/>
<path d="M8755 6570 c-20 -5 -23 -8 -10 -9 11 -1 38 -4 60 -7 27 -5 37 -3 30
4 -15 15 -47 20 -80 12z"/>
<path d="M3908 5735 c-34 -19 -42 -46 -27 -92 11 -34 13 -35 25 -18 8 10 14
15 14 10 0 -5 -10 -20 -22 -33 -20 -20 -23 -34 -22 -92 0 -63 -1 -68 -17 -59
-25 13 -29 12 -29 -12 0 -16 -3 -19 -13 -11 -10 9 -13 0 -14 -45 -1 -42 -7
-61 -24 -79 -12 -13 -19 -24 -14 -24 4 0 14 8 21 18 12 15 15 15 23 2 11 -17
-3 -40 -25 -40 -8 0 -14 -4 -14 -10 0 -5 -6 -10 -14 -10 -19 0 -25 -10 -31
-55 -6 -49 -10 -52 -28 -19 l-14 27 -6 -24 c-23 -100 -29 -170 -19 -211 6 -23
8 -46 4 -50 -4 -4 -40 -2 -80 3 -40 6 -83 8 -95 6 -15 -3 -12 -5 11 -6 25 -1
35 -7 42 -27 6 -14 8 -30 4 -35 -3 -5 0 -9 5 -9 6 0 11 -7 11 -15 0 -8 5 -15
11 -15 14 0 53 -92 67 -155 13 -63 14 -137 2 -130 -6 4 -8 -14 -5 -42 4 -41 2
-38 -9 17 -22 105 -35 133 -78 169 -44 38 -70 35 -76 -9 -2 -14 0 -20 7 -15 6
3 18 0 26 -8 27 -27 65 -90 65 -107 0 -9 8 -24 18 -34 18 -16 39 -95 40 -146
0 -14 6 -66 13 -117 11 -80 11 -98 -3 -140 l-15 -48 -21 48 c-35 79 -92 143
-92 104 0 -11 32 -84 59 -137 5 -8 29 -19 55 -24 25 -4 46 -11 46 -15 0 -18
246 -240 380 -344 36 -27 51 -46 55 -71 9 -43 -11 -138 -34 -168 -10 -13 -21
-30 -24 -38 -4 -12 -6 -11 -6 3 -1 9 -9 17 -19 17 -9 0 -22 10 -27 23 -7 15
-23 25 -52 31 -37 9 -43 13 -43 36 0 14 -8 30 -20 38 -11 7 -20 20 -20 30 -1
16 -1 16 -10 0 -6 -10 -20 -15 -35 -13 -14 1 -25 -2 -25 -6 0 -5 -4 -9 -9 -9
-12 0 -22 44 -11 48 6 2 10 10 10 17 0 8 8 19 19 24 10 6 28 27 40 47 21 35
21 37 3 68 -10 17 -26 32 -35 34 -14 3 -17 -4 -17 -35 -1 -21 -10 -54 -20 -73
-11 -19 -26 -50 -35 -67 -8 -18 -19 -33 -24 -33 -5 0 -7 -19 -4 -42 l6 -43
-23 25 c-22 24 -22 24 -16 3 6 -18 4 -22 -8 -17 -16 6 -12 29 12 57 19 22 4
22 -20 0 -16 -14 -23 -15 -38 -5 -11 7 -33 12 -50 12 -16 0 -30 5 -30 10 0 6
11 10 25 10 23 0 35 13 79 87 5 9 -2 12 -22 10 -20 -1 -28 -6 -24 -15 4 -11
-3 -10 -31 1 -19 9 -38 13 -41 9 -3 -3 -6 8 -6 24 0 22 -3 26 -10 14 -8 -13
-10 -13 -10 1 0 19 -20 29 -58 29 -23 1 -25 2 -9 11 9 6 15 15 11 20 -4 6 -14
3 -27 -8 -11 -10 -17 -13 -13 -6 4 8 -3 15 -21 19 -15 4 -47 20 -70 35 -29 20
-43 25 -46 16 -3 -6 -6 -1 -6 12 -1 17 3 22 14 17 19 -7 20 11 1 29 -12 12
-20 12 -53 -1 l-39 -16 -36 36 c-20 20 -41 50 -47 67 l-11 31 51 -7 c37 -5 50
-4 45 4 -4 6 -1 11 6 11 14 0 18 56 5 77 -4 7 1 14 13 18 15 5 19 12 15 25 -4
12 1 22 12 29 15 9 11 10 -19 11 -21 0 -38 5 -38 10 0 6 -5 10 -11 10 -7 0
-20 10 -30 22 -17 19 -18 23 -4 38 20 23 20 54 -1 46 -10 -4 -14 -1 -11 6 2 7
11 12 20 12 9 -1 14 3 10 9 -4 7 8 8 35 4 24 -3 40 -1 36 4 -3 5 -13 10 -22
10 -9 1 -3 5 13 9 17 4 22 8 13 9 -28 2 -21 18 12 30 18 6 30 6 30 0 0 -5 5
-9 11 -9 5 0 8 4 4 9 -3 5 -1 12 4 16 10 6 111 -43 123 -60 4 -5 9 -7 12 -4
11 11 -68 92 -123 127 l-56 36 42 8 c35 8 50 5 102 -21 38 -18 61 -25 61 -17
0 7 -5 17 -12 24 -6 6 -10 14 -7 16 2 3 27 -17 55 -42 41 -38 55 -59 68 -104
17 -59 43 -94 30 -41 -24 103 -73 202 -112 226 -7 5 -17 19 -22 31 -13 36 -78
63 -125 54 -82 -17 -128 -87 -58 -89 l28 0 -25 -10 c-14 -6 -51 -9 -83 -7 -31
3 -52 1 -45 -3 17 -11 -5 -35 -40 -43 -31 -7 -132 -129 -132 -161 0 -25 -17
-52 -26 -42 -4 3 -1 28 7 54 7 26 12 57 11 69 -2 14 5 24 23 32 31 14 25 33
-8 24 l-22 -5 20 24 c11 13 24 27 29 30 4 4 3 9 -2 13 -16 9 -78 -19 -91 -41
-20 -34 -13 18 10 67 49 108 100 175 200 262 84 73 150 118 176 118 23 1 -24
41 -81 72 -58 30 -170 23 -248 -16 -64 -32 -123 -86 -95 -86 30 0 30 -28 -2
-90 -18 -36 -33 -87 -38 -123 -4 -34 -9 -54 -11 -44 -7 33 -29 17 -36 -25 -4
-24 -14 -82 -23 -130 l-16 -88 -37 0 c-89 0 -134 -144 -63 -200 14 -11 32 -20
39 -20 7 0 15 -4 19 -9 5 -9 -29 -300 -60 -506 -21 -145 -20 -249 5 -299 18
-37 72 -101 114 -134 9 -7 16 -26 16 -42 0 -17 9 -53 20 -82 26 -69 25 -80
-10 -150 -50 -98 -36 -128 60 -128 50 0 60 -18 60 -102 0 -75 16 -103 63 -113
19 -4 53 -27 84 -57 56 -55 56 -58 32 -166 -5 -24 -12 -84 -15 -135 -2 -51 -9
-114 -14 -140 -15 -71 -10 -101 5 -38 12 49 45 103 45 73 0 -20 16 -13 28 12
5 13 20 26 31 29 12 3 21 4 21 2 0 -14 -55 -105 -64 -105 -6 0 -4 5 4 10 12 8
11 10 -7 10 -17 0 -24 -7 -29 -27 -3 -16 -10 -43 -15 -62 -5 -19 -6 -37 -4
-40 3 -2 5 0 5 6 0 6 7 13 15 17 9 3 15 0 15 -9 0 -17 -29 -47 -40 -40 -8 5
-20 -27 -20 -54 0 -11 3 -11 13 3 12 16 13 16 14 -3 1 -12 -4 -21 -11 -21 -20
0 -42 -58 -27 -73 14 -14 15 -41 1 -32 -5 3 -10 -1 -10 -9 0 -8 -6 -21 -14
-28 -19 -20 -32 -63 -15 -53 9 6 10 3 5 -11 -11 -26 -14 -75 -32 -509 -17
-425 -28 -516 -80 -648 -20 -51 -51 -136 -70 -190 -41 -117 -61 -157 -120
-243 -24 -36 -44 -72 -44 -80 0 -12 121 -14 875 -14 721 0 875 2 875 13 0 8
28 54 62 103 73 103 144 233 158 284 5 19 12 66 15 105 3 38 11 75 17 82 12
15 20 353 8 353 -10 0 -19 48 -10 52 11 5 20 68 10 68 -6 0 -10 -8 -11 -17 0
-15 -3 -14 -16 4 -16 23 -40 33 -27 11 5 -7 3 -8 -5 -3 -9 5 -10 10 -2 18 7 7
15 6 26 -3 23 -19 48 8 40 42 -5 20 -13 25 -31 24 -19 -1 -24 -6 -20 -19 2 -9
0 -15 -4 -12 -5 3 -11 1 -15 -5 -10 -16 -36 -11 -33 6 2 10 -3 19 -11 22 -8 2
-11 0 -8 -6 4 -5 0 -15 -8 -22 -10 -8 -15 -9 -15 -2 0 8 -9 8 -30 1 -16 -6
-30 -14 -30 -18 0 -4 -13 -6 -30 -3 l-30 4 18 31 c21 39 42 62 42 48 0 -6 14
-11 31 -11 24 0 30 -4 25 -15 -3 -8 0 -15 5 -15 6 0 9 9 6 20 -3 10 0 21 5 22
18 6 -2 47 -29 62 -19 9 -31 29 -44 72 -21 66 -19 70 49 80 39 6 44 11 41 42
0 4 -6 6 -14 4 -7 -1 -16 2 -20 8 -3 5 -14 10 -23 10 -10 0 -25 9 -35 20 -9
11 -23 20 -31 20 -11 0 -13 7 -6 29 11 39 5 42 -36 25 -19 -8 -39 -12 -44 -9
-4 3 -21 0 -36 -5 -20 -8 -29 -8 -34 0 -10 16 -21 -15 -13 -37 3 -10 15 -28
26 -41 23 -24 11 -30 -18 -8 -11 8 -25 12 -31 9 -7 -2 -11 3 -11 14 2 16 -5
18 -48 15 -59 -4 -90 -29 -135 -109 -25 -44 -30 -64 -30 -120 0 -64 -17 -190
-61 -453 -28 -161 -38 -202 -49 -195 -6 4 -7 -6 -4 -23 6 -30 -30 -131 -42
-119 -4 3 3 24 15 47 24 47 27 80 7 80 -9 0 -14 12 -14 38 0 54 -9 113 -20
143 -9 22 -8 26 6 25 10 0 16 5 14 14 -7 28 21 89 42 96 19 6 17 9 -14 20
l-35 13 38 -5 c22 -4 37 -2 37 4 0 24 -13 42 -32 42 -10 0 -16 -5 -13 -10 3
-6 1 -10 -4 -10 -6 0 -11 10 -11 23 -1 20 -2 21 -14 5 -17 -23 -21 -23 -21 5
-1 12 -4 37 -8 55 -5 25 -3 32 8 32 8 0 15 7 15 15 0 8 7 15 16 15 11 0 15 -6
11 -20 -3 -11 -4 -20 -3 -20 0 0 16 -4 34 -10 31 -8 33 -8 20 8 -33 42 -75 72
-108 78 -19 3 -43 9 -52 15 -23 12 -23 1 0 -24 17 -19 16 -19 -48 -12 -36 4
-73 11 -82 16 -9 5 -35 9 -57 9 -23 0 -41 5 -41 11 0 5 -8 9 -17 8 -59 -6 -87
13 -38 25 28 7 34 26 9 26 -12 0 -15 6 -10 24 4 15 1 26 -7 29 -16 6 -57 -10
-57 -23 0 -25 -25 -7 -27 20 -1 17 2 30 7 30 5 0 6 8 3 18 -6 14 -4 15 9 4 19
-15 71 -32 115 -36 29 -4 31 -2 20 15 -6 10 -15 19 -18 19 -12 0 -29 54 -27
88 1 23 4 30 12 22 5 -5 37 -10 70 -10 34 0 88 -4 121 -9 33 -6 94 -13 136
-16 l77 -7 -5 26 c-3 14 -9 26 -14 26 -5 0 -14 11 -21 25 -10 18 -17 22 -28
15 -12 -8 -12 -10 4 -10 23 0 13 -13 -14 -17 -25 -4 -37 17 -16 29 21 12 21
39 0 31 -12 -4 -15 -2 -12 8 3 8 14 13 24 11 14 -2 20 4 22 21 2 28 7 26 -217
48 -114 11 -125 11 -136 -5 -7 -9 -11 -25 -8 -34 3 -13 -7 -20 -49 -31 -29 -7
-70 -16 -90 -18 -33 -4 -37 -3 -33 15 2 13 -3 22 -16 25 -19 5 -27 27 -9 27 6
0 10 5 10 10 0 6 -9 10 -19 10 -10 0 -22 7 -25 16 -5 14 2 15 57 11 51 -4 67
-2 87 14 14 10 32 19 40 19 13 0 13 1 0 10 -8 5 -10 10 -5 10 16 0 48 59 41
76 -3 7 -11 14 -18 14 -9 0 -8 -3 2 -10 13 -8 13 -10 -1 -10 -9 0 -19 8 -22
19 -3 14 3 21 29 29 l34 10 -6 -54 c-8 -63 4 -73 65 -58 29 7 38 16 48 44 7
19 12 54 12 78 1 23 6 42 12 42 5 0 8 4 5 8 -2 4 4 14 16 21 11 7 17 8 13 2
-4 -7 5 -11 24 -11 21 0 31 -5 31 -15 0 -10 -10 -15 -34 -15 l-33 0 -6 -63
c-3 -35 -7 -70 -9 -78 -2 -8 4 -14 12 -14 8 0 15 7 16 15 4 58 3 57 29 52 14
-2 25 -11 25 -18 0 -8 1 -17 1 -21 1 -5 -9 -14 -22 -20 -23 -12 -23 -13 -3
-13 26 0 44 20 48 52 2 13 7 31 11 41 7 17 8 17 21 0 13 -16 14 -11 11 43 -2
33 -6 64 -8 70 -3 5 16 28 42 52 36 33 46 38 42 23 -7 -27 38 -47 68 -30 20
10 19 39 -3 67 -12 14 -38 16 -38 2 0 -5 -5 -10 -11 -10 -7 0 -9 10 -5 25 8
31 -6 33 -19 3 -6 -13 -21 -25 -35 -27 l-25 -3 28 26 c33 30 35 64 5 101 l-21
28 23 -13 c20 -11 22 -10 17 3 -3 9 -1 18 6 20 7 3 -5 19 -28 40 -35 31 -37
35 -17 34 12 -1 22 -5 22 -9 0 -10 27 -10 32 0 5 13 99 2 96 -12 -1 -6 9 -30
22 -54 34 -57 53 -52 62 18 3 30 11 56 17 58 6 2 11 12 11 23 0 12 10 21 32
27 31 8 33 12 47 80 10 54 17 72 30 72 19 -1 55 -29 64 -50 5 -13 6 -13 6 0 1
9 14 21 30 27 28 10 29 10 45 -39 9 -28 16 -61 16 -74 0 -14 6 -24 14 -24 9 0
18 -21 25 -61 11 -63 38 -119 50 -103 8 12 37 17 95 15 65 -2 102 14 111 47 4
15 5 153 3 307 -3 313 -6 301 67 271 21 -9 48 -16 62 -16 16 0 44 -19 81 -53
31 -30 78 -64 104 -77 45 -22 49 -22 125 -9 43 8 85 13 94 11 12 -2 22 -26 35
-80 17 -74 21 -79 107 -172 49 -52 94 -94 99 -92 5 1 7 -2 4 -7 -7 -11 45 -51
66 -51 29 0 68 69 41 70 -5 1 -26 17 -48 37 -22 20 -32 33 -23 30 19 -7 38 18
38 51 0 12 9 22 21 25 17 5 32 -5 67 -44 28 -31 48 -46 52 -39 5 7 11 6 20 -5
7 -8 21 -15 31 -15 22 0 36 -20 19 -30 -8 -5 -7 -9 5 -14 20 -7 38 1 30 14 -3
5 -1 18 4 29 9 16 5 24 -20 46 -17 14 -47 32 -65 40 -19 8 -34 21 -34 29 0 8
-4 18 -10 21 -6 3 -7 -1 -4 -9 7 -19 -11 -21 -23 -3 -11 18 -13 76 -2 82 14 9
11 41 -7 56 -9 7 -13 21 -10 33 3 11 0 27 -7 35 -10 14 -10 14 5 3 27 -21 29
3 3 28 -28 26 -35 51 -7 28 35 -30 41 -29 62 11 24 49 18 71 -22 71 -30 0 -63
-26 -105 -85 l-21 -29 -50 49 c-27 28 -68 67 -91 89 -34 32 -39 41 -30 57 17
32 -5 56 -62 68 -29 6 -54 9 -57 7 -2 -3 -10 0 -17 7 -7 7 -49 43 -94 81 -44
38 -81 72 -81 75 0 3 -16 17 -35 30 -27 18 -34 28 -29 46 4 18 -5 31 -45 65
-28 24 -49 46 -46 48 3 3 19 -7 35 -23 17 -16 30 -23 30 -17 0 7 5 12 11 12 6
0 8 -8 4 -19 -3 -10 1 -23 8 -29 32 -27 66 98 36 134 -6 7 -28 15 -50 19 -31
5 -45 3 -59 -10 -17 -15 -21 -15 -49 0 -17 8 -31 22 -31 31 0 8 -7 26 -16 39
-8 13 -14 34 -13 47 2 13 -2 32 -8 43 -12 23 -42 178 -53 280 -10 86 -5 228
10 275 31 105 -13 355 -81 461 l-39 60 24 32 c35 47 56 93 56 122 0 28 -9 31
-30 13 -8 -7 -6 -3 3 9 20 23 10 37 -20 27 -17 -5 -17 -5 1 10 18 14 17 15
-10 22 -16 4 -44 17 -61 31 l-33 24 16 37 c9 20 20 48 25 62 10 24 10 24 -11
5 -19 -18 -24 -18 -47 -5 -15 8 -35 30 -45 48 -17 31 -17 32 0 23 33 -18 41 0
38 91 -1 48 2 82 6 75 6 -9 10 -8 18 3 7 11 5 16 -11 18 -15 3 -18 9 -14 23 5
14 2 19 -10 19 -12 0 -16 6 -12 20 3 11 -1 27 -10 35 -13 13 -10 18 7 17 6 -1
11 24 14 66 1 28 5 28 54 -8 43 -31 53 -44 27 -34 -8 4 -15 2 -15 -4 0 -14 34
-25 38 -12 3 8 8 7 18 -1 9 -7 14 -8 14 -1 0 15 -77 79 -132 110 -53 30 -77
70 -29 49 14 -6 48 -24 74 -39 56 -33 66 -35 44 -10 -10 10 -15 21 -12 24 3 3
-27 22 -67 43 -40 20 -77 40 -83 45 -5 4 -28 13 -50 20 -22 7 -44 16 -49 21
-6 5 -18 9 -27 9 -10 0 -31 11 -47 25 -36 30 -49 31 -57 5 -9 -27 -9 -27 -112
15 -30 12 -46 15 -55 8 -7 -6 -20 -9 -28 -8 -14 2 -41 -18 -40 -30 2 -64 -2
-115 -10 -115 -11 0 -8 110 3 140 12 31 13 80 3 80 -6 -1 -23 -7 -38 -15z m61
-279 c-12 -20 -24 -35 -27 -32 -3 3 6 21 19 40 31 45 36 39 8 -8z m-32 -115
c-6 -35 -6 -60 2 -83 10 -29 9 -34 -11 -49 -24 -18 -48 -15 -29 4 6 6 11 31
11 57 0 67 11 120 25 120 9 0 10 -12 2 -49z m-87 -141 c-15 -57 -21 -46 -8 15
6 28 13 45 15 38 2 -6 -1 -30 -7 -53z m467 -165 c43 -18 46 -18 37 -2 -4 6 1
5 12 -4 10 -9 25 -14 33 -11 19 6 31 -16 31 -60 l0 -38 -47 36 c-27 19 -59 44
-73 55 -13 10 -30 19 -37 19 -7 0 -13 5 -13 10 0 14 15 13 57 -5z m97 -145
c81 -97 48 -256 -66 -316 -41 -21 -43 -17 -7 13 39 33 68 95 69 146 0 41 -28
105 -61 138 -11 11 -18 27 -15 35 9 25 53 16 80 -16z m45 -14 c-3 -3 -11 5
-18 17 -13 21 -12 21 5 5 10 -10 16 -20 13 -22z m-766 -178 c22 -29 36 -104
47 -253 8 -122 4 -165 -16 -165 -8 0 -14 4 -14 9 0 5 -9 13 -20 16 -11 3 -20
13 -20 20 0 8 9 19 20 25 12 6 20 21 20 35 0 14 5 25 10 25 19 0 10 21 -14 29
-30 12 -35 26 -46 141 -5 53 -14 109 -20 124 -5 15 -10 32 -10 38 0 15 40 -13
63 -44z m-876 -90 c-3 -8 -6 -5 -6 6 -1 11 2 17 5 13 3 -3 4 -12 1 -19z m1670
-14 c54 -28 108 -77 128 -114 19 -37 53 -177 58 -240 5 -62 3 -58 -44 90 -40
125 -91 206 -154 245 -25 16 -45 33 -45 37 0 12 4 10 57 -18z m-87 -43 c-11
-22 -22 -26 -34 -14 -4 4 3 15 16 24 27 21 33 18 18 -10z m-381 -91 c0 -13 -1
-13 -8 0 -5 8 -12 26 -15 40 l-7 25 15 -25 c9 -14 15 -32 15 -40z m212 40 c14
0 16 -8 11 -46 -3 -34 -2 -45 7 -40 6 4 11 13 11 19 0 7 10 23 21 37 l21 25
-6 -28 c-4 -16 -1 -36 9 -50 8 -13 23 -48 33 -78 11 -29 22 -63 26 -74 5 -12
-4 -7 -23 15 -17 19 -31 44 -31 55 -1 18 -2 18 -10 -2 -10 -23 -30 -32 -30
-12 0 5 -8 10 -17 9 -36 -4 -63 12 -63 36 0 12 -11 44 -25 70 -36 67 -34 78
13 70 20 -3 44 -6 53 -6z m-204 -82 c-3 -8 -6 -5 -6 6 -1 11 2 17 5 13 3 -3 4
-12 1 -19z m-70 -20 c15 -19 26 -71 13 -63 -5 3 -10 1 -10 -5 0 -7 9 -14 20
-17 22 -6 28 -51 9 -70 -12 -12 5 -50 40 -90 24 -29 35 -29 50 1 14 25 11 116
-4 151 -8 18 -7 18 8 7 9 -8 20 -11 26 -8 11 7 21 -17 21 -54 0 -15 7 -47 15
-70 8 -23 16 -54 16 -69 1 -20 3 -21 6 -7 3 11 -2 51 -10 90 -20 88 -27 167
-16 160 5 -3 9 -21 9 -40 0 -27 9 -43 37 -71 l36 -37 -6 52 -6 53 34 -28 c18
-15 43 -40 55 -55 l21 -28 -20 0 c-12 0 -21 -4 -21 -10 0 -5 9 -10 20 -10 23
0 54 -16 88 -44 25 -22 29 -46 7 -46 -8 0 -15 -6 -15 -13 0 -7 -9 -18 -20 -25
-11 -7 -20 -19 -20 -28 0 -21 51 -114 62 -114 5 0 6 5 3 10 -3 6 -1 10 6 10 8
0 8 4 2 13 -16 19 -23 59 -10 54 6 -2 14 -10 17 -18 20 -43 28 -52 43 -55 23
-3 29 10 21 51 -6 34 -7 35 -56 33 l-50 -1 6 -36 5 -36 -14 30 c-17 36 -19 71
-5 80 14 9 84 -4 105 -19 9 -6 19 -32 22 -56 3 -25 13 -56 22 -70 15 -23 14
-24 -1 -12 -18 14 -43 7 -33 -9 10 -16 -21 -10 -46 9 -13 10 -34 17 -47 16
-13 -1 -29 8 -37 20 -8 11 -15 15 -15 8 0 -17 -30 -15 -36 3 -4 10 -13 13 -26
9 -14 -4 -29 4 -54 31 -36 38 -43 37 -19 -5 22 -39 18 -44 -21 -21 -19 12 -44
21 -54 21 -18 0 -17 -4 10 -47 16 -27 48 -70 72 -96 39 -44 48 -49 89 -50 43
-2 46 -4 46 -30 0 -23 -4 -26 -21 -22 -17 5 -16 3 4 -9 66 -40 180 -6 232 70
18 26 41 56 52 68 18 21 18 20 1 -9 -10 -16 -33 -51 -52 -78 -33 -47 -33 -47
-8 -41 20 5 25 2 25 -12 0 -11 -9 -30 -19 -43 -16 -22 -17 -26 -3 -53 12 -25
12 -36 2 -69 -11 -32 -11 -41 1 -56 12 -16 12 -17 -1 -6 -8 6 -37 32 -65 57
-41 38 -56 46 -87 46 -21 0 -38 -5 -38 -11 0 -6 -18 4 -41 23 -23 18 -51 41
-62 50 -30 23 -18 31 18 12 22 -12 48 -15 93 -11 79 6 105 25 35 25 -27 0 -65
7 -84 17 -47 23 -127 112 -203 225 -90 133 -218 433 -203 474 8 19 21 21 34 4z
m137 -33 c16 -12 17 -18 7 -28 -10 -10 -15 -8 -27 7 -26 36 -15 47 20 21z
m-1042 -60 c-5 -31 -20 -41 -35 -25 -9 9 -6 16 12 31 29 24 29 24 23 -6z
m1588 -50 c0 -5 -5 -3 -10 5 -5 8 -10 20 -10 25 0 6 5 3 10 -5 5 -8 10 -19 10
-25z m7 -37 c-3 -8 -6 -5 -6 6 -1 11 2 17 5 13 3 -3 4 -12 1 -19z m-1560 -100
c-3 -8 -6 -5 -6 6 -1 11 2 17 5 13 3 -3 4 -12 1 -19z m-20 6 c-3 -3 -12 -4
-19 -1 -8 3 -5 6 6 6 11 1 17 -2 13 -5z m700 -46 c-3 -8 -6 -5 -6 6 -1 11 2
17 5 13 3 -3 4 -12 1 -19z m-707 -12 c0 -3 -4 -8 -10 -11 -5 -3 -10 -1 -10 4
0 6 5 11 10 11 6 0 10 -2 10 -4z m40 -21 c0 -14 -2 -25 -4 -25 -2 0 -6 11 -8
25 -3 14 -1 25 3 25 5 0 9 -11 9 -25z m956 -185 c59 -16 75 -27 54 -40 -13 -8
-12 -11 5 -23 10 -8 24 -13 31 -10 6 2 16 -9 23 -25 6 -15 23 -40 37 -55 33
-36 13 -35 -23 2 -16 16 -65 59 -109 96 -149 127 -199 170 -249 219 -27 26 2
4 66 -51 91 -77 127 -103 165 -113z m-986 140 c0 -5 -7 -7 -15 -4 -8 4 -12 10
-9 15 6 11 24 2 24 -11z m1619 -32 c0 -18 -3 -27 -6 -20 -2 6 -9 10 -14 6 -5
-3 -4 6 3 20 15 34 18 33 17 -6z m-219 -9 c0 -10 -4 -19 -10 -19 -5 0 -10 12
-10 26 0 14 4 23 10 19 6 -3 10 -15 10 -26z m-1735 11 c3 -5 1 -10 -4 -10 -6
0 -11 5 -11 10 0 6 2 10 4 10 3 0 8 -4 11 -10z m2 -62 c-3 -7 -5 -2 -5 12 0
14 2 19 5 13 2 -7 2 -19 0 -25z m1914 5 c-12 -20 -14 -14 -5 12 4 9 9 14 11
11 3 -2 0 -13 -6 -23z m-326 -22 c4 -12 12 -18 21 -14 9 3 14 -2 14 -16 0 -12
-5 -21 -11 -21 -5 0 -7 5 -4 10 3 6 -1 10 -9 10 -9 0 -16 -8 -16 -17 0 -10 -5
-25 -10 -33 -6 -10 -9 3 -9 43 1 57 12 75 24 38z m-1167 -51 c22 -22 38 -40
34 -40 -10 0 -95 80 -84 80 4 0 27 -18 50 -40z m1307 -87 c-11 -3 -24 -9 -29
-14 -14 -13 -23 -11 -30 6 -4 12 3 15 37 14 23 -1 33 -3 22 -6z m-635 -17 c0
-11 -19 -15 -25 -6 -3 5 1 10 9 10 9 0 16 -2 16 -4z m-323 -58 c-3 -8 -6 -5
-6 6 -1 11 2 17 5 13 3 -3 4 -12 1 -19z m-803 -13 c-7 -16 -24 -21 -24 -6 0 8
7 13 27 20 1 1 0 -6 -3 -14z m1446 -31 c0 -8 -4 -12 -10 -9 -14 9 -12 -7 5
-29 8 -10 12 -23 9 -28 -3 -5 0 -15 6 -23 13 -15 16 -92 5 -124 -5 -18 -35
-25 -35 -9 0 4 -7 8 -16 8 -10 0 -14 6 -10 18 20 70 27 110 25 146 -1 23 -1
49 0 59 1 21 21 13 21 -9z m-1457 -14 c-3 -11 -10 -23 -16 -27 -7 -4 -8 0 -4
11 4 10 7 22 7 27 0 5 4 9 9 9 5 0 7 -9 4 -20z m1657 -61 c0 -5 -4 -9 -10 -9
-5 0 -10 7 -10 16 0 8 5 12 10 9 6 -3 10 -10 10 -16z m-27 -75 c25 -32 21 -54
-19 -99 l-34 -40 16 40 c9 22 22 47 30 56 18 21 18 30 -1 22 -9 -3 -27 -28
-41 -55 -49 -96 -95 -161 -107 -149 -8 8 -8 14 2 24 10 10 11 8 6 -8 -5 -15
-4 -17 3 -6 6 8 8 19 6 26 -3 6 6 45 19 86 27 82 42 173 27 164 -6 -3 -7 1 -4
10 5 12 13 9 43 -17 20 -17 44 -42 54 -54z m168 -21 c91 -80 107 -99 90 -101
-12 -2 -33 7 -49 21 -41 38 -119 104 -140 119 -22 15 -39 58 -23 58 6 0 61
-44 122 -97z m185 25 c1 -13 7 -44 12 -70 10 -51 5 -59 -20 -30 -12 13 -14 32
-11 75 6 58 13 68 19 25z m-336 -143 c0 -7 12 -28 28 -46 15 -18 50 -63 77
-100 28 -37 74 -96 103 -130 35 -40 52 -69 50 -83 -3 -22 -32 -30 -34 -8 -1 6
-2 17 -3 22 0 6 -13 16 -28 23 -16 6 -43 27 -61 46 -23 24 -36 31 -43 24 -8
-8 -7 -17 1 -33 14 -26 5 -64 -10 -40 -5 8 -15 40 -21 70 -6 30 -17 64 -24 76
-8 12 -17 38 -20 58 -4 20 -11 39 -16 42 -5 3 -6 16 -3 28 4 19 1 25 -21 30
-26 7 -27 8 -10 26 19 21 35 18 35 -5z m309 -18 c20 -22 21 -57 2 -57 -7 0
-41 64 -41 75 0 12 18 3 39 -18z m171 10 c0 -17 -38 -53 -46 -44 -4 3 -4 18 0
32 7 26 46 37 46 12z m-62 -176 c36 -31 57 -72 35 -71 -15 1 -63 49 -63 63 0
7 -18 28 -40 46 -22 17 -40 37 -40 42 0 6 15 -2 33 -17 17 -15 51 -43 75 -63z
m-71 -4 c19 -17 22 -54 4 -43 -20 12 -3 -33 18 -49 23 -17 24 -17 18 -1 -4 10
-7 22 -7 27 0 6 -6 7 -12 3 -7 -4 -5 1 4 11 16 17 18 17 55 -15 21 -19 37 -39
35 -44 -2 -6 0 -8 4 -4 10 11 34 -11 34 -31 0 -10 -6 -26 -14 -37 -14 -19 -15
-19 -39 4 -20 19 -25 32 -23 62 2 27 -1 37 -9 34 -7 -3 -11 -16 -9 -29 2 -24
2 -24 -37 8 -21 17 -39 37 -39 42 0 6 -9 16 -20 23 -11 7 -20 21 -20 33 0 13
-4 18 -12 13 -7 -4 -8 -3 -4 5 4 6 12 8 18 5 8 -5 9 -1 4 11 -6 16 -4 16 11 4
10 -7 28 -22 40 -32z m-1186 -6 c22 -17 45 -31 52 -34 8 -2 7 -12 -2 -36 -16
-38 -47 -62 -70 -54 -30 11 -61 46 -61 71 0 20 28 82 37 82 2 0 21 -13 44 -29z
m579 12 c-8 -4 -29 -17 -46 -30 -36 -27 -59 -30 -68 -8 -3 8 -4 15 -3 15 1 0
20 7 42 15 37 13 109 21 75 8z m770 -85 c0 -13 -23 -5 -28 10 -2 7 2 10 12 6
9 -3 16 -11 16 -16z m155 12 c3 -5 1 -10 -4 -10 -6 0 -11 5 -11 10 0 6 2 10 4
10 3 0 8 -4 11 -10z m-58 -42 c-3 -7 -5 -2 -5 12 0 14 2 19 5 13 2 -7 2 -19 0
-25z m67 7 c10 -8 25 -26 32 -40 13 -25 12 -27 -4 -21 -11 4 -8 -1 8 -15 68
-58 92 -81 87 -85 -2 -3 -39 23 -80 58 -60 50 -76 69 -76 91 -1 30 5 33 33 12z
m-114 -41 c0 -3 -7 -1 -15 6 -8 7 -15 17 -15 22 0 5 7 3 15 -6 8 -8 15 -18 15
-22z m233 -75 c7 -25 4 -24 -37 12 -22 19 -33 36 -29 45 5 12 11 10 33 -11 16
-15 30 -36 33 -46z m-673 -25 c7 -13 11 -26 8 -29 -8 -9 -35 5 -35 18 0 7 -4
20 -8 30 -11 27 19 11 35 -19z m705 17 c3 -5 2 -12 -3 -15 -5 -3 -9 1 -9 9 0
17 3 19 12 6z m72 -59 c27 -27 68 -64 92 -83 26 -22 42 -42 40 -52 -3 -14 -9
-13 -37 10 -22 16 -30 28 -22 33 8 5 6 11 -5 20 -13 11 -14 10 -9 -5 5 -13 4
-16 -4 -11 -40 25 28 -45 79 -81 15 -11 17 -10 14 12 -3 28 -2 28 63 -27 18
-16 39 -28 47 -28 8 0 15 -7 15 -15 0 -22 -10 -19 -46 16 -31 30 -31 30 -27 6
8 -43 -11 -37 -77 23 -36 33 -70 59 -76 60 -6 0 -14 -18 -17 -41 -5 -41 -13
-57 -22 -47 -3 3 -1 18 5 34 12 31 8 83 -11 129 -11 29 -12 28 -30 -50 -11
-44 -24 -84 -29 -89 -13 -13 -13 -11 4 50 9 35 11 73 7 118 -4 36 -6 66 -4 66
2 0 24 -22 50 -48z m-191 -28 c-4 -14 -9 -24 -12 -21 -3 2 -2 17 2 31 3 15 9
25 11 22 3 -3 2 -17 -1 -32z m528 -319 c-4 -8 -10 -13 -15 -10 -4 3 -6 12 -3
20 4 8 10 13 15 10 4 -3 6 -12 3 -20z m-1130 -290 c11 -138 -13 -94 -32 58
-14 110 -14 127 -2 143 16 19 18 9 34 -201z m-1184 190 c0 -8 -2 -15 -4 -15
-2 0 -6 7 -10 15 -3 8 -1 15 4 15 6 0 10 -7 10 -15z m-50 -88 c0 -7 -12 -29
-26 -48 l-25 -34 7 30 c9 40 22 65 34 65 6 0 10 -6 10 -13z m-54 -124 c-11
-11 -17 4 -9 23 7 18 8 18 11 1 2 -10 1 -21 -2 -24z m594 -104 c-8 -15 -8 -29
-1 -51 15 -41 7 -47 -9 -8 -10 23 -10 37 -2 55 7 14 14 25 17 25 3 0 1 -9 -5
-21z m-311 -60 c-19 -12 -24 -2 -8 17 9 11 14 13 17 4 3 -7 -2 -16 -9 -21z
m-369 -207 c0 -15 -2 -15 -10 -2 -13 20 -13 33 0 25 6 -3 10 -14 10 -23z m674
-31 c10 -16 -5 -41 -25 -41 -14 0 -19 7 -19 25 0 18 5 25 19 25 11 0 22 -4 25
-9z m-141 -44 c-5 -41 -27 -72 -44 -61 -18 11 -9 32 11 27 17 -4 20 0 20 24 0
16 -4 33 -10 39 -6 6 -3 10 9 11 16 1 18 -4 14 -40z m-315 -22 c7 3 18 5 23 5
6 0 7 4 4 10 -3 6 1 7 10 4 12 -5 7 -13 -21 -35 -20 -16 -45 -29 -55 -29 -20
0 -26 24 -9 35 6 4 8 11 5 16 -4 5 -3 14 1 21 5 8 11 5 17 -11 6 -13 16 -20
25 -16z m-193 -68 c13 -37 13 -47 1 -82 -16 -44 -12 -60 8 -32 17 22 26 22 26
0 0 -9 -3 -13 -7 -10 -10 11 -34 -30 -27 -47 4 -12 0 -16 -16 -16 -17 0 -21 5
-17 19 3 14 1 18 -10 14 -13 -5 -13 -2 -4 15 15 28 14 31 -9 25 -15 -4 -20 0
-20 14 0 10 5 24 12 31 7 7 9 12 5 12 -4 0 -3 9 3 20 12 23 32 18 23 -5 -3 -8
0 -15 5 -15 22 0 23 21 3 54 -25 39 -27 58 -6 50 7 -3 21 -24 30 -47z m107
-119 c-7 -7 -12 -8 -12 -2 0 14 12 26 19 19 2 -3 -1 -11 -7 -17z m384 -38 c8
0 14 7 14 16 0 8 5 12 10 9 6 -3 10 -22 10 -41 0 -19 -4 -34 -10 -34 -5 0 -10
7 -10 15 0 21 -28 19 -33 -2 -3 -10 -5 2 -5 27 0 25 2 37 5 28 2 -10 11 -18
19 -18z m114 12 c0 -3 -10 -16 -22 -29 l-21 -23 21 0 c12 0 22 -4 22 -10 0
-12 -30 -13 -49 -1 -12 8 -12 13 3 35 14 23 14 26 1 26 -8 0 -15 4 -15 8 0 5
14 7 30 4 17 -2 30 -7 30 -10z m67 -27 c4 -46 -3 -56 -29 -46 -39 14 -35 85 4
79 17 -2 23 -11 25 -33z m-447 10 c0 -6 -16 -11 -35 -11 -19 0 -35 5 -35 11 0
6 16 11 35 11 19 0 35 -5 35 -11z m490 -35 c0 -5 -7 -10 -15 -10 -8 0 -15 5
-15 10 0 6 7 10 15 10 8 0 15 -4 15 -10z m-399 -37 c-9 -16 -10 -14 -11 12 0
21 3 26 11 18 8 -8 8 -16 0 -30z m967 -6 c2 -10 -3 -17 -12 -17 -18 0 -29 16
-21 31 9 14 29 6 33 -14z m-98 -147 c-8 -5 -24 -9 -35 -9 -16 1 -16 2 5 9 35
11 48 11 30 0z m-1236 -18 c8 -13 -5 -52 -15 -46 -12 7 -12 54 0 54 6 0 12 -4
15 -8z m1311 -72 c3 -5 21 -10 40 -10 19 0 36 -4 40 -9 3 -5 -8 -9 -24 -9 -17
1 -37 -5 -46 -12 -13 -11 -14 -10 -9 4 4 10 0 18 -10 22 -9 3 -16 10 -16 15 0
12 17 11 25 -1z m-705 -111 c0 6 7 11 16 11 8 0 12 -5 9 -10 -3 -6 4 -14 17
-19 34 -13 52 -52 45 -100 -3 -23 -1 -41 4 -41 4 0 6 -7 2 -16 -4 -10 -13 -14
-26 -10 -12 3 -28 0 -36 -7 -12 -9 -13 -9 -7 1 4 7 1 12 -8 12 -11 0 -16 -10
-17 -27 0 -16 -3 -23 -5 -16 -3 7 -14 9 -32 4 -15 -4 -33 -6 -39 -4 -15 5 -17
-13 -3 -22 6 -3 10 -11 10 -16 0 -6 -4 -8 -9 -4 -5 3 -12 1 -15 -4 -3 -5 1
-11 9 -15 8 -3 15 -12 15 -21 0 -14 3 -14 25 2 15 11 22 24 19 36 -3 9 0 17 6
17 6 0 8 -5 4 -12 -5 -8 -2 -9 9 -5 10 4 24 10 32 13 9 4 15 1 15 -7 0 -7 3
-10 6 -6 10 9 34 -19 34 -40 0 -22 -27 -63 -42 -63 -5 0 -7 7 -4 16 3 8 2 12
-4 9 -5 -3 -12 6 -16 21 -4 17 -2 29 7 35 20 12 2 11 -22 -1 -23 -13 -25 -53
-4 -74 9 -8 22 -36 30 -62 7 -25 21 -54 31 -65 9 -10 14 -25 11 -32 -3 -8 -1
-19 5 -25 7 -7 6 -17 -2 -32 -6 -12 -14 -19 -18 -16 -3 4 -11 -7 -18 -24 -9
-19 -20 -30 -34 -30 -13 0 -20 -7 -20 -20 0 -23 -15 -27 -24 -5 -3 8 -16 15
-28 15 -13 0 -30 5 -38 10 -17 11 -23 50 -6 47 6 -1 12 8 14 21 2 15 9 22 17
18 8 -3 17 -1 20 5 4 5 -1 12 -10 16 -16 5 -16 7 -1 15 24 14 19 30 -6 23 -15
-4 -19 -3 -10 3 14 9 6 42 -12 54 -7 5 2 18 23 36 41 34 30 48 -26 33 -20 -6
-39 -9 -41 -6 -9 8 24 32 41 29 9 -1 17 2 17 6 0 5 3 15 6 23 4 11 -7 23 -35
39 -22 13 -43 29 -46 36 -13 34 37 65 54 34 9 -15 10 -15 17 3 4 11 12 23 18
27 7 5 7 8 -1 8 -7 0 -13 7 -13 15 0 14 3 13 25 -1 14 -9 28 -14 31 -11 9 8
-55 39 -66 32 -6 -3 -10 -12 -10 -18 0 -7 -9 -13 -20 -14 -14 -1 -20 4 -20 18
0 11 4 18 9 15 5 -3 11 1 15 9 3 10 -1 15 -12 16 -9 1 -2 6 16 12 20 6 31 15
28 23 -3 7 10 22 30 34 19 12 32 26 28 31 -10 17 7 31 22 18 10 -8 14 -8 14 0z
m-135 -9 c3 -5 -1 -10 -9 -10 -9 0 -16 5 -16 10 0 6 4 10 9 10 6 0 13 -4 16
-10z m45 6 c0 -3 -4 -8 -10 -11 -5 -3 -10 -1 -10 4 0 6 5 11 10 11 6 0 10 -2
10 -4z m968 -28 c7 -7 12 -20 12 -30 0 -20 15 -24 26 -7 3 6 1 15 -6 19 -8 5
-5 9 9 13 15 4 28 -4 46 -25 31 -37 29 -64 -4 -60 -12 1 -35 -5 -51 -14 -15
-10 -35 -14 -44 -11 -21 8 -21 47 -1 47 23 0 -1 41 -27 48 -20 5 -20 6 -3 19
23 16 28 16 43 1z m-724 -13 c3 -8 1 -15 -4 -15 -6 0 -10 7 -10 15 0 8 2 15 4
15 2 0 6 -7 10 -15z m700 -23 c8 -13 -9 -32 -31 -36 -23 -5 -40 29 -19 38 18
7 44 7 50 -2z m-714 -72 c0 -11 -4 -20 -9 -20 -5 0 -7 9 -4 20 3 11 7 20 9 20
2 0 4 -9 4 -20z m830 -29 c0 -12 -10 -18 -34 -19 -36 -3 -58 15 -35 28 23 15
69 8 69 -9z m34 -56 c-4 -8 -8 -15 -10 -15 -2 0 -4 7 -4 15 0 8 4 15 10 15 5
0 7 -7 4 -15z m-824 -60 c0 -8 -2 -15 -4 -15 -2 0 -6 7 -10 15 -3 8 -1 15 4
15 6 0 10 -7 10 -15z m21 -347 c-7 -21 -16 -38 -21 -38 -13 0 -13 0 4 48 8 22
12 43 9 45 -3 3 -1 12 3 19 14 22 17 -31 5 -74z m-254 -80 c-3 -7 -5 -2 -5 12
0 14 2 19 5 13 2 -7 2 -19 0 -25z m899 -83 c-10 -8 -23 -12 -28 -9 -6 4 1 12
14 18 29 16 39 9 14 -9z"/>
<path d="M3690 4476 c0 -2 7 -6 15 -10 8 -3 15 -1 15 4 0 6 -7 10 -15 10 -8 0
-15 -2 -15 -4z"/>
<path d="M4250 4383 c0 -4 8 -17 16 -28 15 -20 16 -20 12 4 -3 22 -28 44 -28
24z"/>
<path d="M4360 3259 c0 -5 5 -7 10 -4 6 3 10 8 10 11 0 2 -4 4 -10 4 -5 0 -10
-5 -10 -11z"/>
<path d="M4770 3038 c0 -9 5 -20 10 -23 13 -8 13 5 0 25 -8 13 -10 13 -10 -2z"/>
<path d="M3434 3115 c-9 -34 0 -51 35 -69 27 -14 31 -14 45 0 24 23 20 39 -18
68 -43 32 -54 33 -62 1z"/>
<path d="M3035 1590 c3 -5 8 -10 11 -10 2 0 4 5 4 10 0 6 -5 10 -11 10 -5 0
-7 -4 -4 -10z"/>
<path d="M3725 1480 c4 -6 11 -8 16 -5 14 9 11 15 -7 15 -8 0 -12 -5 -9 -10z"/>
<path d="M3620 990 c-8 -5 -10 -10 -5 -10 6 0 17 5 25 10 8 5 11 10 5 10 -5 0
-17 -5 -25 -10z"/>
<path d="M3653 573 c-7 -2 -13 -13 -13 -23 0 -11 -10 -20 -25 -24 -14 -4 -25
-11 -25 -16 0 -14 6 -13 50 13 48 27 58 69 13 50z"/>
<path d="M3600 440 c0 -5 5 -10 10 -10 6 0 10 5 10 10 0 6 -4 10 -10 10 -5 0
-10 -4 -10 -10z"/>
<path d="M4003 5738 c-21 -27 -24 -38 -10 -38 7 0 19 11 25 25 12 26 2 34 -15
13z"/>
<path d="M3786 5502 c-30 -44 -33 -62 -8 -62 30 1 52 26 52 58 0 45 -14 47
-44 4z"/>
<path d="M4580 5496 c0 -7 6 -18 13 -24 10 -8 13 -5 15 14 1 15 -3 24 -13 24
-8 0 -15 -6 -15 -14z"/>
<path d="M7410 5150 c-9 -6 -10 -10 -3 -10 6 0 15 5 18 10 8 12 4 12 -15 0z"/>
<path d="M4563 5054 c-12 -19 -19 -34 -15 -34 9 0 46 60 40 64 -1 2 -13 -12
-25 -30z"/>
<path d="M9578 4924 c-23 -12 -79 -94 -64 -94 2 0 25 25 51 55 25 30 45 55 43
55 -2 -1 -15 -8 -30 -16z"/>
<path d="M3360 4920 c0 -5 -6 -7 -14 -4 -7 3 -16 -1 -19 -8 -3 -10 6 -14 35
-14 37 -1 38 -1 22 17 -19 21 -24 23 -24 9z"/>
<path d="M3430 4899 c0 -5 5 -7 10 -4 6 3 10 8 10 11 0 2 -4 4 -10 4 -5 0 -10
-5 -10 -11z"/>
<path d="M3450 4878 c0 -8 12 -15 26 -16 17 -1 24 2 22 11 -6 17 -48 22 -48 5z"/>
<path d="M3285 4850 c-3 -6 1 -7 9 -4 18 7 21 14 7 14 -6 0 -13 -4 -16 -10z"/>
<path d="M3455 4810 c-3 -5 -1 -10 4 -10 6 0 11 5 11 10 0 6 -2 10 -4 10 -3 0
-8 -4 -11 -10z"/>
<path d="M2805 4754 c-8 -55 1 -72 10 -20 4 20 11 39 16 42 5 3 7 10 4 15 -13
20 -23 7 -30 -37z"/>
<path d="M3417 4778 c4 -19 3 -20 -6 -8 -9 13 -11 13 -11 -2 0 -12 8 -18 23
-18 13 0 28 -5 33 -10 6 -6 25 -15 43 -20 30 -8 32 -8 25 13 -3 12 -11 27 -16
34 -5 7 -6 17 -2 24 4 7 2 10 -7 7 -15 -6 -15 -11 -4 -40 4 -11 3 -18 -4 -18
-6 0 -16 11 -20 24 -9 21 -29 36 -51 36 -4 0 -6 -10 -3 -22z"/>
<path d="M3106 4764 c-3 -8 -11 -14 -18 -12 -13 5 -102 -92 -93 -100 2 -3 16
3 29 12 33 21 49 20 43 -3 -10 -38 24 -50 99 -35 34 6 49 39 37 83 -4 14 -1
21 9 21 35 0 89 39 56 41 -7 0 -31 2 -53 3 -22 2 -48 -1 -58 -6 -12 -6 -23 -6
-31 2 -10 8 -15 6 -20 -6z"/>
<path d="M3580 4720 c0 -5 9 -14 20 -20 11 -6 20 -9 20 -8 0 2 -9 11 -20 21
-11 9 -20 13 -20 7z"/>
<path d="M9692 4619 c-15 -19 -33 -29 -50 -29 -26 -1 -26 -1 -8 -15 11 -8 16
-15 10 -15 -5 0 -2 -5 6 -10 42 -27 85 5 85 64 0 39 -15 41 -43 5z"/>
<path d="M9841 4634 c0 -11 3 -14 6 -6 3 7 2 16 -1 19 -3 4 -6 -2 -5 -13z"/>
<path d="M2983 4608 c-34 -16 -28 -29 7 -17 16 6 27 15 24 20 -3 5 -6 9 -7 8
-1 0 -12 -5 -24 -11z"/>
<path d="M6230 4340 c0 -5 5 -10 10 -10 6 0 10 5 10 10 0 6 -4 10 -10 10 -5 0
-10 -4 -10 -10z"/>
<path d="M6207 4313 c-4 -3 -7 -14 -7 -24 0 -10 -15 -30 -32 -45 -18 -15 -22
-19 -8 -10 14 9 40 26 58 37 26 17 30 24 21 35 -13 15 -22 18 -32 7z"/>
<path d="M3310 4130 c0 -5 5 -10 10 -10 6 0 10 5 10 10 0 6 -4 10 -10 10 -5 0
-10 -4 -10 -10z"/>
<path d="M4701 3864 c0 -11 3 -14 6 -6 3 7 2 16 -1 19 -3 4 -6 -2 -5 -13z"/>
<path d="M3676 3618 c3 -5 10 -6 15 -3 13 9 11 12 -6 12 -8 0 -12 -4 -9 -9z"/>
<path d="M3812 3610 c-7 -11 -10 -20 -6 -20 7 0 34 27 34 34 0 13 -16 5 -28
-14z"/>
<path d="M3991 3544 c0 -11 3 -14 6 -6 3 7 2 16 -1 19 -3 4 -6 -2 -5 -13z"/>
<path d="M4372 2190 c-1 -19 3 -53 7 -75 8 -35 9 -36 9 -10 0 17 -3 50 -7 75
-8 42 -9 43 -9 10z"/>
<path d="M4141 2144 c-1 -5 12 -23 28 -38 31 -30 61 -30 61 0 0 12 -7 15 -25
12 -14 -3 -25 -1 -25 3 0 5 -6 9 -14 9 -8 0 -17 6 -19 13 -3 6 -6 7 -6 1z"/>
<path d="M3880 2137 c0 -5 78 -44 113 -57 31 -11 35 -1 10 22 -23 21 -123 48
-123 35z"/>
<path d="M4348 1964 c-14 -49 -29 -124 -32 -167 -3 -42 -13 -93 -21 -113 -8
-20 -15 -45 -15 -55 0 -22 -8 -23 -64 -7 -53 15 -64 24 -69 56 -3 17 -5 11 -6
-17 -1 -35 -4 -42 -13 -33 -21 21 -43 14 -45 -16 -2 -26 0 -27 39 -24 l40 4
-7 -32 c-7 -30 -6 -31 14 -21 17 9 22 8 31 -9 14 -26 47 -26 55 -1 3 11 15 23
26 26 21 7 26 25 7 25 -9 0 -8 4 2 10 24 15 39 12 33 -9 -3 -12 2 -21 14 -25
10 -3 23 -8 29 -11 8 -4 10 4 5 26 -5 27 -2 37 24 62 34 35 22 46 -24 22 -35
-18 -42 -4 -9 19 22 15 21 15 -8 12 l-29 -4 3 55 c3 35 9 56 18 60 12 4 12 8
-3 18 -16 12 -15 19 11 112 16 55 27 106 24 113 -2 7 -16 -27 -30 -76z m-23
-334 c3 -5 -1 -10 -10 -10 -9 0 -13 5 -10 10 3 6 8 10 10 10 2 0 7 -4 10 -10z
m-97 -32 c8 -8 8 -15 1 -24 -9 -11 -14 -11 -25 1 -8 7 -14 18 -14 24 0 15 23
14 38 -1z"/>
<path d="M4095 2030 c-3 -5 3 -10 15 -10 12 0 18 5 15 10 -3 6 -10 10 -15 10
-5 0 -12 -4 -15 -10z"/>
<path d="M3042 2000 c0 -19 2 -27 5 -17 2 9 2 25 0 35 -3 9 -5 1 -5 -18z"/>
<path d="M4164 1988 c-5 -24 -9 -74 -9 -113 -1 -38 -5 -88 -8 -110 l-6 -40 16
35 c9 19 34 72 55 118 22 46 37 86 35 89 -3 2 -11 -5 -17 -18 l-12 -22 -14 24
c-7 13 -13 34 -14 46 0 40 -18 34 -26 -9z"/>
<path d="M4232 2013 c-13 -3 -21 -10 -19 -16 6 -18 38 -21 48 -5 11 16 11 28
2 27 -5 -1 -18 -4 -31 -6z"/>
<path d="M4068 1983 c-27 -14 -38 -33 -18 -33 6 0 10 5 10 11 0 6 6 9 13 6 19
-7 45 10 32 21 -6 5 -21 3 -37 -5z"/>
<path d="M4296 1973 c-11 -11 -6 -23 9 -23 8 0 15 4 15 9 0 13 -16 22 -24 14z"/>
<path d="M3031 1944 c0 -11 3 -14 6 -6 3 7 2 16 -1 19 -3 4 -6 -2 -5 -13z"/>
<path d="M3022 1880 c0 -14 2 -19 5 -12 2 6 2 18 0 25 -3 6 -5 1 -5 -13z"/>
<path d="M9050 1861 c12 -23 29 -35 37 -27 4 3 -4 15 -17 26 -29 25 -33 25
-20 1z"/>
<path d="M3825 1778 c-23 -56 -35 -108 -25 -108 4 0 10 7 14 15 3 8 15 15 26
15 11 0 20 -7 20 -15 0 -8 5 -15 10 -15 6 0 10 25 10 55 0 30 -4 55 -10 55 -5
0 -10 -16 -10 -35 0 -19 -4 -35 -8 -35 -18 0 -20 13 -6 45 8 19 14 41 14 50 0
29 -18 15 -35 -27z"/>
<path d="M4250 1779 c0 -5 5 -7 10 -4 6 3 10 8 10 11 0 2 -4 4 -10 4 -5 0 -10
-5 -10 -11z"/>
<path d="M4410 1760 c-9 -6 -10 -10 -3 -10 6 0 15 5 18 10 8 12 4 12 -15 0z"/>
<path d="M4234 1655 c25 -19 36 -19 36 0 0 10 -10 15 -27 15 -27 -1 -27 -1 -9
-15z"/>
<path d="M3323 1553 c9 -2 23 -2 30 0 6 3 -1 5 -18 5 -16 0 -22 -2 -12 -5z"/>
<path d="M3900 1540 c13 -24 35 -27 26 -4 -3 9 -6 18 -6 20 0 2 -7 4 -15 4
-13 0 -14 -4 -5 -20z"/>
<path d="M4480 1295 c0 -8 5 -15 10 -15 6 0 10 7 10 15 0 8 -4 15 -10 15 -5 0
-10 -7 -10 -15z"/>
<path d="M8933 1285 c0 -8 4 -15 9 -15 4 0 8 -9 8 -20 0 -11 5 -20 10 -20 6 0
10 -6 10 -12 0 -7 4 -19 9 -27 12 -18 53 3 45 24 -8 19 1 19 32 -1 31 -21 42
-12 15 13 -12 10 -30 26 -40 35 -11 9 -22 13 -26 10 -3 -4 -10 -1 -14 6 -12
20 -58 25 -58 7z"/>
<path d="M8930 1169 c0 -5 5 -7 10 -4 6 3 10 8 10 11 0 2 -4 4 -10 4 -5 0 -10
-5 -10 -11z"/>
<path d="M3915 1110 c-3 -5 1 -10 9 -10 9 0 16 5 16 10 0 6 -4 10 -9 10 -6 0
-13 -4 -16 -10z"/>
<path d="M6702 880 c0 -14 2 -19 5 -12 2 6 2 18 0 25 -3 6 -5 1 -5 -13z"/>
<path d="M9087 853 c-11 -11 -8 -43 4 -43 6 0 9 7 5 15 -3 8 -1 15 4 15 6 0
10 5 10 10 0 11 -13 13 -23 3z"/>
<path d="M3880 679 c0 -5 5 -7 10 -4 6 3 10 8 10 11 0 2 -4 4 -10 4 -5 0 -10
-5 -10 -11z"/>
<path d="M9180 630 c0 -5 5 -10 11 -10 5 0 7 5 4 10 -3 6 -8 10 -11 10 -2 0
-4 -4 -4 -10z"/>
<path d="M9275 510 c-3 -5 -1 -10 4 -10 6 0 11 5 11 10 0 6 -2 10 -4 10 -3 0
-8 -4 -11 -10z"/>
<path d="M9300 410 c-8 -5 -11 -12 -8 -16 10 -9 38 3 38 16 0 12 -10 13 -30 0z"/>
<path d="M9110 400 c0 -8 5 -22 10 -30 9 -13 10 -13 10 0 0 8 -5 22 -10 30 -9
13 -10 13 -10 0z"/>
<path d="M9371 384 c0 -11 3 -14 6 -6 3 7 2 16 -1 19 -3 4 -6 -2 -5 -13z"/>
<path d="M9273 375 c0 -8 4 -15 9 -15 4 0 8 4 8 9 0 6 -4 12 -8 15 -5 3 -9 -1
-9 -9z"/>
<path d="M9335 370 c-3 -5 -2 -10 4 -10 5 0 13 5 16 10 3 6 2 10 -4 10 -5 0
-13 -4 -16 -10z"/>
<path d="M9293 342 c-16 -35 -4 -96 14 -76 8 8 9 15 3 19 -6 4 -4 17 5 35 11
22 12 30 2 38 -9 8 -16 4 -24 -16z"/>
<path d="M9336 328 c-11 -41 -8 -52 9 -38 16 13 21 60 6 60 -5 0 -11 -10 -15
-22z"/>
<path d="M9320 135 c0 -8 7 -15 15 -15 8 0 15 4 15 9 0 5 -7 11 -15 15 -9 3
-15 0 -15 -9z"/>
<path d="M9298 22 c-30 -6 -20 -22 15 -22 17 0 28 4 22 8 -5 4 -12 10 -15 13
-3 3 -13 4 -22 1z"/>
</g>
</svg>
