<?xml version="1.0" standalone="no"?>
<!DOCTYPE svg PUBLIC "-//W3C//DTD SVG 20010904//EN"
 "http://www.w3.org/TR/2001/REC-SVG-20010904/DTD/svg10.dtd">
<svg version="1.0" xmlns="http://www.w3.org/2000/svg"
 width="1280.000000pt" height="720.000000pt" viewBox="0 0 1280.000000 720.000000"
 preserveAspectRatio="xMidYMid meet">

<g transform="translate(0.000000,720.000000) scale(0.100000,-0.100000)"
fill="#000000" stroke="none">
<path d="M10210 7154 c-24 -56 -25 -52 3 -57 20 -4 19 -4 -4 -6 -15 0 -30 -8
-33 -17 -4 -9 -5 -18 -4 -18 2 -1 14 -7 28 -14 25 -12 24 -12 -6 -7 -36 7 -31
15 -109 -190 -29 -77 -83 -210 -120 -295 -65 -153 -110 -265 -198 -490 -24
-63 -64 -156 -88 -207 l-43 -91 -19 24 c-10 14 -29 24 -43 24 -17 0 -28 8 -36
26 l-12 27 -13 -29 c-8 -19 -12 -23 -13 -11 0 9 10 38 22 63 18 38 19 47 7 55
-26 17 -57 10 -64 -13 -19 -70 -97 -238 -115 -248 -11 -7 -8 -10 15 -16 40 -9
46 -13 39 -26 -4 -5 -9 -6 -13 -2 -3 5 -21 14 -39 21 -25 9 -32 9 -31 0 3 -24
-1 -37 -11 -37 -6 0 -8 11 -4 25 5 21 3 25 -17 25 -13 0 -35 3 -49 7 -22 6
-23 5 -12 -10 10 -12 11 -21 2 -36 -15 -28 -19 -26 -18 8 1 38 -8 51 -38 51
-39 0 -32 -45 12 -86 41 -36 41 -64 0 -64 -18 0 -23 -4 -19 -18 2 -10 -3 -24
-11 -31 -14 -11 -16 -11 -17 5 0 11 -3 14 -5 7 -8 -19 15 -53 35 -53 40 0 41
-22 8 -120 -18 -51 -39 -97 -47 -101 -8 -4 -28 -14 -45 -22 -16 -7 -39 -18
-50 -24 -11 -6 -33 -17 -48 -24 -33 -15 -50 -41 -41 -63 4 -10 22 -16 57 -18
50 -3 52 -4 55 -34 4 -40 -27 -108 -52 -112 -10 -2 -16 0 -12 6 8 14 -42 34
-104 41 -51 6 -55 8 -58 34 -2 15 6 76 17 135 21 106 41 510 41 820 0 110 -1
114 -27 138 -17 16 -33 22 -46 18 -13 -4 -17 -2 -13 5 4 6 0 11 -9 11 -15 0
-96 41 -120 60 -5 5 -60 29 -121 53 -121 50 -184 66 -184 48 0 -6 8 -11 17
-11 45 0 216 -95 366 -203 38 -27 45 -36 32 -41 -22 -8 -27 -8 -21 3 3 5 -1
12 -10 15 -10 4 -13 2 -8 -6 4 -6 -13 1 -37 16 -56 35 -146 76 -181 83 -34 7
-51 -23 -24 -42 13 -10 14 -14 4 -18 -9 -4 -10 -8 -2 -14 12 -9 44 -87 44
-107 0 -8 -7 -22 -16 -30 -9 -9 -18 -35 -21 -58 -2 -23 -10 -53 -17 -67 -7
-14 -16 -39 -20 -56 -9 -39 -49 -125 -58 -125 -4 0 -3 11 2 25 8 20 6 29 -10
45 -38 38 -50 86 -43 167 4 54 3 77 -6 82 -7 5 -14 17 -15 27 -2 15 -13 20
-49 22 -39 3 -46 0 -41 -12 4 -11 0 -16 -11 -16 -10 0 -13 -5 -9 -12 4 -7 3
-8 -5 -4 -6 4 -9 16 -6 27 5 13 2 19 -10 19 -11 0 -15 -6 -10 -19 4 -14 0 -20
-20 -23 -14 -3 -28 -1 -31 3 -7 12 -34 11 -34 -1 0 -5 7 -10 15 -10 18 0 20
-16 3 -23 -10 -4 -10 -6 0 -6 6 -1 12 -5 12 -11 0 -5 -6 -7 -14 -4 -8 3 -23 1
-33 -5 -17 -10 -17 -10 0 -11 9 0 17 -7 17 -16 0 -14 -3 -14 -15 -4 -19 16
-19 6 1 -25 18 -28 12 -45 -14 -39 -15 4 -17 -3 -18 -51 0 -32 4 -55 10 -55
15 -1 80 -89 72 -97 -3 -3 -6 0 -6 8 0 12 -2 11 -10 -1 -8 -12 -16 -8 -50 25
-57 56 -292 199 -345 210 l-30 6 28 -16 c15 -9 27 -20 27 -25 0 -5 9 -12 21
-15 11 -4 18 -9 16 -12 -3 -2 -32 9 -66 26 -76 39 -95 40 -87 6 5 -18 3 -23
-7 -19 -18 7 -236 -23 -250 -34 -7 -5 -34 -17 -62 -27 -27 -10 -55 -22 -61
-27 -6 -5 -19 -5 -28 -2 -11 4 -26 -2 -42 -16 -13 -13 -24 -18 -24 -12 0 24
49 63 120 94 41 19 107 50 145 70 84 43 195 143 195 176 0 28 -19 28 -54 1
-14 -11 -31 -17 -37 -13 -9 5 -6 11 6 21 18 13 18 13 -1 13 -29 -1 -92 -32
-159 -79 l-60 -42 -9 27 c-5 17 -4 35 5 52 7 15 15 32 18 37 2 6 -8 -1 -22
-14 -15 -13 -24 -27 -22 -32 5 -7 -13 -24 -26 -24 -11 0 -59 -50 -59 -61 0 -6
-16 -29 -35 -52 -34 -39 -92 -149 -83 -157 2 -3 19 0 37 5 24 7 31 6 28 -3 -2
-6 -18 -14 -36 -18 -18 -4 -36 -11 -40 -15 -12 -14 -51 -147 -61 -210 -16 -94
-34 -512 -26 -586 7 -61 10 -68 29 -68 12 0 28 -4 36 -9 8 -5 -46 -7 -135 -5
-219 7 -229 8 -265 38 -18 15 -54 38 -81 52 -47 24 -51 24 -68 9 -16 -15 -22
-15 -46 -3 -15 7 -42 33 -59 58 -33 47 -61 62 -71 36 -3 -8 -12 -12 -19 -10
-7 3 -21 -6 -30 -19 -23 -36 -41 -39 -86 -16 -60 30 -82 23 -92 -29 -11 -57
-42 -70 -105 -47 -28 11 -56 15 -80 10 -20 -3 -50 -6 -67 -5 -118 5 -162 4
-178 -2 -17 -7 -17 -9 -2 -24 29 -30 55 -93 55 -135 0 -53 -7 -48 -14 9 -2 25
-17 61 -32 84 -24 34 -30 38 -40 24 -14 -20 -24 -20 -24 -1 0 8 -9 19 -20 25
-14 8 -20 8 -20 0 0 -6 -12 -2 -26 9 -38 30 -67 28 -32 -2 31 -25 72 -112 64
-133 -4 -10 -2 -12 6 -8 8 5 9 -2 5 -26 -4 -18 -7 -40 -8 -49 0 -9 -8 11 -16
44 -9 33 -27 77 -40 98 -48 76 -134 100 -191 52 -34 -28 -61 -31 -100 -11 -18
9 -82 17 -189 21 l-161 8 -12 -37 c-17 -52 -4 -111 34 -153 26 -31 31 -44 31
-87 0 -28 -3 -59 -7 -68 -10 -25 -78 -24 -110 1 -13 11 -53 29 -89 41 -59 20
-94 23 -424 31 -392 9 -530 17 -558 31 -36 19 -47 55 -67 229 l-21 176 21 64
c11 35 20 84 20 108 0 58 -33 126 -68 140 -75 31 -264 41 -298 16 -11 -8 -41
-15 -71 -15 -33 0 -57 -6 -67 -16 -40 -40 -33 -128 17 -210 35 -57 36 -64 52
-229 8 -93 17 -185 20 -203 3 -29 0 -35 -26 -46 -16 -7 -26 -15 -22 -19 3 -4
-8 -4 -25 -1 -65 13 -105 -39 -123 -161 -20 -130 15 -242 96 -314 44 -38 37
-38 555 -11 206 11 503 27 660 35 157 8 300 17 318 21 17 4 52 24 77 46 56 49
103 58 313 58 124 0 157 -3 178 -16 23 -16 26 -15 46 2 20 19 21 19 14 -3 -6
-18 -2 -22 21 -26 l28 -4 -27 -2 c-18 0 -28 -7 -28 -16 0 -24 35 -88 62 -111
32 -29 134 -84 155 -84 10 0 36 -11 58 -25 29 -18 55 -24 95 -25 60 0 73 -6
83 -32 8 -23 57 -24 98 -2 17 8 33 13 36 10 10 -10 -9 -46 -25 -46 -13 0 -13
3 4 16 21 17 13 15 -28 -5 -14 -7 -29 -21 -32 -30 -3 -9 -9 -21 -12 -28 -3 -7
2 -10 13 -7 11 3 20 14 20 26 2 23 10 34 18 26 15 -14 -8 -56 -33 -62 -20 -4
-33 -18 -50 -53 -12 -27 -22 -60 -22 -74 0 -35 -23 -64 -44 -56 -10 4 -15 3
-11 -3 3 -6 13 -10 21 -10 21 0 19 -57 -3 -63 -16 -4 -15 -5 1 -6 20 -1 20 -1
0 -16 -11 -8 -14 -15 -6 -15 16 0 15 -25 -2 -43 -8 -8 -13 -28 -11 -48 1 -19
-2 -40 -8 -47 -7 -9 -6 -16 4 -25 8 -7 12 -11 10 -10 -2 2 -10 -2 -17 -8 -11
-9 -16 -6 -22 12 -7 19 -10 14 -15 -30 -3 -29 -11 -59 -17 -65 -5 -7 -7 -16
-4 -19 3 -3 3 -11 -1 -17 -6 -9 -10 -9 -17 1 -7 10 -8 7 -4 -11 11 -42 17 -86
10 -72 -15 32 -24 4 -24 -77 0 -70 -3 -90 -15 -95 -8 -3 -15 -14 -15 -25 0
-12 -6 -18 -17 -17 -14 1 -20 -9 -24 -39 -4 -27 -7 -32 -8 -15 -2 23 -3 23
-10 5 -5 -11 -11 -46 -15 -78 l-7 -57 83 -81 c99 -97 139 -121 237 -144 90
-22 134 -14 256 45 59 30 111 66 185 133 154 138 166 148 184 141 9 -3 45 -43
80 -88 92 -117 165 -183 212 -191 22 -4 48 -13 60 -20 15 -9 25 -10 40 -2 25
14 32 24 45 72 7 22 14 34 16 28 8 -24 -28 -100 -54 -114 -25 -13 -25 -16 -20
-85 8 -91 10 -95 57 -122 l40 -23 0 -77 c0 -42 -7 -112 -15 -155 -18 -92 -20
-150 -5 -127 7 11 10 5 10 -22 0 -41 6 -47 25 -21 16 22 33 9 27 -22 -4 -22
-7 -24 -20 -13 -13 11 -14 11 -7 -2 6 -8 8 -54 6 -101 -3 -95 11 -136 68 -201
25 -29 30 -44 36 -121 5 -53 12 -87 19 -87 6 0 22 -16 36 -35 14 -19 28 -35
32 -35 11 0 158 -91 158 -97 0 -3 -7 -3 -15 1 -9 3 -15 0 -15 -9 0 -9 -6 -12
-15 -9 -8 4 -15 1 -15 -5 0 -6 5 -11 10 -11 13 0 13 -15 0 -62 -11 -37 -12
-37 -55 -34 -60 4 -48 -10 15 -18 45 -6 50 -9 50 -31 0 -23 4 -25 45 -25 33 0
45 -4 45 -15 0 -8 18 -23 40 -32 43 -19 50 -30 25 -39 -10 -4 -13 -13 -10 -24
3 -10 -2 -25 -10 -34 -15 -15 -12 -20 8 -17 4 0 7 -4 7 -9 0 -6 -4 -10 -10
-10 -5 0 -10 -4 -10 -9 0 -6 12 -6 31 -1 20 6 39 6 50 -1 13 -6 19 -6 19 1 0
5 4 10 9 10 6 0 6 -12 -1 -31 -8 -23 -7 -33 2 -42 10 -9 11 -7 5 11 -4 16 -2
22 8 22 8 0 20 7 27 15 11 13 9 20 -10 40 -20 21 -21 25 -7 25 9 0 17 5 17 10
0 15 16 12 34 -5 8 -8 21 -15 29 -15 19 0 30 -27 14 -34 -7 -2 -1 -5 14 -5 14
-1 30 -6 37 -13 8 -8 15 -8 26 1 14 12 14 8 1 -30 -7 -24 -19 -70 -25 -101 -6
-32 -16 -58 -21 -58 -5 0 -9 5 -9 10 0 6 -9 10 -20 10 -23 0 -24 4 -10 31 9
16 7 19 -13 19 -20 0 -23 -4 -19 -30 2 -17 10 -30 17 -30 7 0 18 -6 25 -14 6
-8 18 -12 26 -9 8 3 14 0 14 -7 0 -7 8 -19 18 -27 16 -13 15 -14 -5 -8 -27 7
-26 -18 3 -40 19 -14 19 -14 -1 -15 -24 -1 -70 -56 -55 -65 6 -4 8 -11 5 -16
-10 -16 11 -10 34 10 13 12 18 22 11 26 -5 3 -10 12 -10 18 0 7 9 1 20 -13 19
-25 19 -25 -1 -46 l-20 -22 25 -6 c21 -5 23 -10 17 -33 -7 -26 -11 -28 -62
-28 -41 0 -54 -4 -54 -15 0 -17 -69 -23 -97 -8 -11 5 -18 5 -18 0 0 -5 23 -19
50 -30 49 -21 78 -20 92 3 4 6 23 12 42 13 32 2 36 0 36 -23 0 -19 -5 -25 -21
-25 -16 0 -19 -4 -14 -17 12 -28 8 -56 -10 -65 -18 -11 -20 -55 -2 -61 9 -3 9
-11 0 -37 -7 -18 -10 -36 -8 -40 3 -5 86 -9 186 -9 144 -1 179 1 173 11 -6 11
-5 11 8 0 11 -9 48 -12 116 -11 l100 1 32 65 c29 57 31 67 20 89 -8 14 -22 24
-35 24 -13 0 -36 3 -53 6 -27 5 -30 10 -31 48 0 22 -5 75 -10 116 -6 41 -11
113 -11 160 0 79 1 83 17 67 13 -13 15 -20 5 -29 -15 -15 -16 -60 0 -76 8 -8
20 -7 46 3 44 19 42 20 38 -15 -2 -17 1 -27 6 -24 5 4 17 -4 25 -16 14 -20 18
-21 27 -8 6 8 21 17 34 20 22 6 27 -5 25 -59 -1 -7 6 -13 14 -13 9 0 13 6 9
15 -3 8 -2 14 2 13 4 -1 15 2 24 6 14 7 16 12 7 28 -10 18 -9 20 9 16 12 -3
28 -1 37 6 15 11 14 13 -9 24 -14 6 -26 16 -26 21 0 14 54 18 83 6 l28 -11
-23 -30 c-12 -16 -16 -24 -8 -17 12 9 19 8 34 -3 11 -8 25 -14 32 -14 15 0 26
42 14 54 -6 6 -10 19 -10 30 0 16 -3 17 -12 8 -26 -26 -30 -10 -4 17 16 16 34
27 40 25 14 -5 70 46 61 55 -3 3 -17 -8 -30 -24 -13 -17 -26 -27 -30 -23 -4 4
6 23 24 43 34 39 43 62 11 27 -20 -21 -47 -31 -35 -13 3 5 -6 18 -20 29 -29
23 -23 32 19 32 21 1 37 8 48 25 l18 24 -32 -10 c-17 -5 -36 -13 -42 -19 -5
-5 -20 -10 -32 -10 -13 0 -25 -4 -28 -9 -3 -5 -16 -7 -27 -4 -21 6 -21 6 2 19
13 7 32 13 43 14 10 0 33 9 50 19 17 10 46 22 64 26 21 4 32 12 28 20 -5 13
12 35 26 35 4 0 8 -7 8 -16 0 -14 3 -14 15 -4 8 7 15 17 15 23 0 6 7 19 17 29
15 17 15 18 0 18 -10 0 -17 8 -17 20 0 12 7 20 16 20 12 0 15 7 12 30 -4 24
-1 30 13 30 10 0 26 3 36 6 14 6 16 4 6 -6 -8 -9 -9 -19 -2 -32 14 -26 26 -22
34 12 13 61 71 20 60 -42 -3 -13 -10 -33 -16 -45 -16 -30 -4 -41 19 -20 29 26
38 20 12 -8 -13 -14 -20 -28 -15 -32 4 -5 10 -3 12 4 3 9 9 10 23 1 15 -10 23
-9 40 7 28 25 37 12 10 -15 -12 -12 -19 -24 -17 -27 10 -10 78 67 71 80 -5 9
-4 9 5 1 10 -10 10 -17 0 -35 -7 -13 -14 -37 -14 -54 -1 -16 -5 -40 -9 -52 -6
-19 -4 -23 13 -23 12 0 29 9 38 20 17 19 17 19 31 -2 19 -26 27 -13 37 60 4
28 11 50 16 47 4 -3 6 -12 3 -19 -6 -16 20 -27 51 -22 13 2 19 10 17 20 -3 15
0 16 17 6 11 -6 26 -20 32 -33 9 -18 9 -20 -2 -9 -30 28 -36 3 -14 -52 6 -14
5 -17 -4 -12 -7 5 -18 0 -26 -10 -11 -15 -14 -16 -15 -4 0 13 -2 13 -9 1 -6
-9 -6 -22 1 -35 8 -14 7 -22 -3 -30 -8 -7 -13 -25 -11 -46 2 -30 -2 -38 -28
-53 -29 -17 -40 -37 -21 -37 5 0 11 -10 13 -22 2 -15 9 -21 18 -19 8 3 29 4
46 3 18 -1 37 5 44 13 7 8 9 15 4 15 -5 0 4 7 20 15 30 16 46 12 46 -10 0 -17
27 -27 34 -12 2 7 5 -2 5 -20 1 -17 -3 -35 -9 -38 -5 -3 -10 -16 -10 -28 1
-20 2 -19 17 7 11 21 14 43 9 82 -3 29 -2 55 3 58 19 12 31 -24 32 -97 1 -51
6 -80 15 -88 11 -9 14 -7 14 8 0 10 5 24 12 31 14 14 -8 156 -23 146 -5 -3 -9
10 -9 28 0 18 -9 52 -20 75 -10 23 -20 57 -22 75 -3 31 -1 33 32 36 62 4 81
12 90 37 6 17 5 34 -4 56 -12 29 -14 30 -24 13 -14 -24 -16 0 -2 25 17 32 -27
100 -107 164 -65 52 -73 62 -73 92 0 19 9 57 20 85 22 57 26 95 9 106 -8 4 -9
31 -4 86 6 75 5 82 -19 118 -25 39 -25 39 -15 152 5 62 21 167 34 233 12 66
26 158 30 205 9 113 29 209 49 228 15 15 18 15 35 -3 10 -11 89 -137 176 -280
182 -300 211 -344 231 -352 17 -6 64 33 64 54 0 7 -46 82 -102 168 -171 258
-242 374 -313 510 l-67 130 -1 90 c0 50 3 206 7 347 6 193 12 260 21 268 10 8
44 3 132 -21 219 -59 274 -69 323 -58 123 28 259 142 327 274 37 73 70 173 44
135 -16 -24 -22 -6 -9 28 7 18 18 32 25 32 7 0 13 6 13 14 0 8 3 22 7 32 4 12
3 15 -5 10 -7 -4 -12 -16 -12 -27 0 -23 6 -23 -75 2 -37 11 -69 18 -73 15 -3
-3 0 -6 6 -6 7 0 12 -6 12 -14 0 -14 21 -26 46 -26 9 0 12 5 8 12 -5 8 -2 9
10 5 10 -4 22 -7 27 -7 5 0 2 -16 -6 -36 -11 -27 -12 -40 -4 -50 8 -9 5 -16
-12 -25 -17 -9 -24 -9 -27 0 -2 6 -8 11 -13 11 -6 0 -7 -4 -4 -10 3 -5 -1 -10
-9 -10 -9 0 -13 6 -10 14 4 10 -5 18 -28 25 -26 9 -27 10 -6 7 15 -1 33 1 40
5 9 6 5 9 -13 9 -36 0 -48 18 -53 76 -3 27 -9 61 -15 76 -5 14 -13 55 -16 90
-4 34 -8 68 -10 75 -4 13 -45 6 -45 -8 0 -5 7 -6 15 -3 8 4 15 1 15 -4 0 -6
-7 -12 -16 -14 -14 -3 -13 -7 5 -30 15 -18 21 -41 21 -73 0 -42 -2 -46 -22
-43 -18 3 -22 10 -23 56 -3 80 -21 86 -33 10 -19 -117 -47 -206 -73 -228 -3
-3 -8 -13 -12 -23 -4 -10 -11 -15 -17 -12 -6 4 -5 16 3 33 8 15 19 54 26 87 7
33 24 88 37 122 13 34 26 82 29 105 l5 43 -14 -42 c-26 -76 -146 -289 -146
-258 0 4 -16 -12 -35 -36 -19 -24 -35 -50 -35 -58 0 -8 -3 -11 -7 -8 -9 10
-10 77 -1 77 13 0 9 99 -7 165 -7 33 -27 94 -43 135 -17 41 -39 124 -49 184
-25 147 -18 142 -248 161 -99 8 -202 15 -228 15 -45 0 -48 1 -42 23 4 12 23
48 42 80 59 98 53 202 -22 364 l-33 72 21 14 c68 44 163 81 201 80 59 -2 85
-7 81 -13 -2 -3 21 -19 51 -34 61 -32 69 -42 79 -106 6 -34 20 -58 57 -100 27
-30 60 -75 73 -100 30 -58 203 -234 322 -328 98 -77 128 -112 96 -112 -16 -1
-16 -2 2 -16 11 -9 29 -20 40 -26 19 -11 19 -10 3 9 -10 11 -18 24 -18 29 1 5
16 -9 35 -31 l35 -40 0 36 c0 33 -13 49 -140 182 -78 80 -163 162 -189 181
-27 20 -52 47 -55 60 -3 14 -36 60 -74 104 -37 43 -94 112 -128 153 -34 41
-86 92 -118 113 -31 20 -56 44 -56 53 0 9 12 51 26 92 15 42 35 126 45 186 35
200 122 432 178 473 36 26 40 49 9 54 -20 3 -20 5 -6 18 8 9 17 38 20 66 3 28
28 106 56 175 58 140 234 566 358 863 46 110 82 201 81 202 -1 1 -18 7 -37 13
l-35 11 41 -5 41 -5 12 57 c6 31 11 61 11 67 -1 12 -24 -24 -25 -37 0 -9 -26
-27 -38 -27 -5 0 1 12 12 26 23 29 27 54 11 54 -6 0 -20 -21 -30 -46z m-366
-1049 c-4 -8 -10 -15 -15 -15 -4 0 -6 7 -3 15 4 8 10 15 15 15 4 0 6 -7 3 -15z
m-1014 -96 c0 -6 -4 -7 -10 -4 -5 3 -10 11 -10 16 0 6 5 7 10 4 6 -3 10 -11
10 -16z m-555 -49 c3 -5 1 -10 -4 -10 -6 0 -11 5 -11 10 0 6 2 10 4 10 3 0 8
-4 11 -10z m-100 -20 c3 -5 1 -10 -4 -10 -6 0 -11 5 -11 10 0 6 2 10 4 10 3 0
8 -4 11 -10z m-310 -160 c8 -13 -15 -13 -35 0 -12 8 -11 10 7 10 12 0 25 -4
28 -10z m1810 -40 c3 -5 1 -10 -4 -10 -6 0 -11 5 -11 10 0 6 2 10 4 10 3 0 8
-4 11 -10z m-1161 -35 c-9 -14 -19 -23 -22 -20 -5 4 26 45 35 45 2 0 -4 -11
-13 -25z m-1074 -40 c127 -2 272 -15 350 -31 51 -11 180 -56 180 -62 0 -4 9
-13 20 -20 15 -9 26 -10 41 -2 15 9 24 8 35 -1 21 -17 17 -37 -8 -42 -13 -2
-4 -5 20 -6 71 -2 47 -21 -27 -21 -39 0 -73 -4 -76 -10 -3 -5 -3 -10 2 -11 4
0 43 -1 86 -3 78 -3 78 -3 104 -41 20 -30 23 -39 12 -46 -20 -12 -29 -11 -26
4 1 9 -16 11 -66 10 -73 -3 -98 -10 -77 -23 7 -4 26 -4 41 0 17 5 31 5 34 -1
4 -5 13 -9 21 -9 9 0 22 -7 31 -16 9 -8 22 -13 29 -10 8 3 14 1 14 -4 0 -6 5
-10 11 -10 6 0 22 -9 36 -20 27 -21 25 -26 -5 -12 -86 42 -109 52 -120 52 -7
0 -15 7 -18 15 -5 11 -11 12 -25 5 -31 -17 -140 5 -164 32 -15 16 -34 24 -65
26 -61 3 -362 91 -405 117 -11 7 -45 23 -75 35 -30 13 -72 30 -92 38 -21 9
-40 22 -43 30 -7 20 36 53 60 45 11 -4 85 -7 165 -8z m938 9 c12 -4 22 -10 22
-14 0 -10 -49 0 -56 11 -6 10 2 11 34 3z m-1223 -44 c3 -6 -1 -7 -9 -4 -18 7
-21 14 -7 14 6 0 13 -4 16 -10z m2136 -94 c30 -14 48 -25 41 -25 -13 -1 -102
39 -102 45 0 7 6 5 61 -20z m84 -36 c3 -6 -1 -7 -9 -4 -18 7 -21 14 -7 14 6 0
13 -4 16 -10z m75 -19 c0 -6 -4 -13 -10 -16 -5 -3 -10 1 -10 9 0 9 5 16 10 16
6 0 10 -4 10 -9z m-2032 -41 c122 -46 200 -68 304 -85 128 -20 166 -35 73 -29
-151 11 -287 49 -413 114 -73 37 -61 38 36 0z m1822 10 c0 -5 -5 -10 -11 -10
-5 0 -7 5 -4 10 3 6 8 10 11 10 2 0 4 -4 4 -10z m-1045 -20 c3 -5 1 -10 -4
-10 -6 0 -11 5 -11 10 0 6 2 10 4 10 3 0 8 -4 11 -10z m1173 -41 c-2 -6 -8
-10 -13 -10 -5 0 -11 4 -13 10 -2 6 4 11 13 11 9 0 15 -5 13 -11z m-1881 -25
c-3 -3 -12 -4 -19 -1 -8 3 -5 6 6 6 11 1 17 -2 13 -5z m43 -14 c8 -5 11 -10 5
-10 -5 0 -17 5 -25 10 -8 5 -10 10 -5 10 6 0 17 -5 25 -10z m674 -5 c3 -8 1
-15 -4 -15 -6 0 -10 7 -10 15 0 8 2 15 4 15 2 0 6 -7 10 -15z m-539 -25 c80
-13 184 -38 165 -39 -28 -2 -252 39 -268 49 -13 7 -10 8 13 5 17 -3 57 -10 90
-15z m391 -44 c12 -13 24 -31 27 -38 4 -10 8 -10 16 2 9 12 11 10 9 -10 -2
-19 1 -24 15 -22 9 2 17 -2 17 -9 0 -16 -52 -2 -65 17 -5 9 -20 28 -32 42 -20
23 -26 25 -43 15 -16 -11 -18 -10 -14 2 4 9 -3 19 -17 25 -20 9 -16 10 21 6
32 -3 51 -12 66 -30z m-20 -48 c3 -10 10 -18 15 -18 6 0 7 -4 4 -10 -10 -16
-20 -12 -42 18 -19 26 -20 28 -2 28 11 0 22 -8 25 -18z m275 -29 c7 -4 11 -9
9 -11 -11 -8 -140 4 -135 12 7 11 109 10 126 -1z m679 -73 c9 -12 8 -15 -9
-13 -21 1 -26 8 -14 20 9 9 9 9 23 -7z m445 4 c3 -5 2 -10 -4 -10 -5 0 -13 5
-16 10 -3 6 -2 10 4 10 5 0 13 -4 16 -10z m-3825 -320 c6 -11 8 -20 6 -20 -3
0 -10 9 -16 20 -6 11 -8 20 -6 20 3 0 10 -9 16 -20z m3471 -10 c-24 -11 -46
-20 -50 -20 -12 1 64 39 79 39 8 0 -5 -8 -29 -19z m-3001 0 c0 -5 -10 -10 -22
-9 -22 0 -22 1 -3 9 11 5 21 9 23 9 1 1 2 -3 2 -9z m1107 -6 c-3 -3 -12 -4
-19 -1 -8 3 -5 6 6 6 11 1 17 -2 13 -5z m-1300 -20 c-3 -3 -12 -4 -19 -1 -8 3
-5 6 6 6 11 1 17 -2 13 -5z m986 -21 c-18 -2 -48 -2 -65 0 -18 2 -4 4 32 4 36
0 50 -2 33 -4z m-373 -20 c16 -9 36 -33 45 -52 11 -25 32 -45 65 -64 27 -15
49 -31 48 -35 -2 -4 10 -28 26 -54 23 -40 33 -48 58 -48 41 0 113 -52 142
-103 26 -45 46 -105 27 -77 -8 11 -9 -7 -5 -65 6 -72 4 -83 -14 -105 l-21 -25
-1 33 c0 20 -6 35 -15 39 -9 3 -24 22 -35 42 -10 20 -19 31 -20 24 0 -8 -10
-7 -32 4 -29 15 -32 15 -45 -2 -25 -35 -17 -47 27 -43 39 3 40 3 40 -29 0 -26
-6 -36 -25 -45 -22 -10 -29 -8 -50 12 -17 16 -23 30 -19 43 4 13 2 17 -5 13
-11 -7 -16 10 -25 89 -6 50 -46 208 -51 203 -2 -2 0 -37 5 -78 8 -71 7 -76
-17 -104 -24 -29 -25 -30 -5 -45 42 -33 38 -57 -25 -176 -6 -11 -15 -31 -20
-45 -10 -25 -10 -25 -31 17 -12 22 -26 43 -32 45 -6 2 -12 27 -14 56 -2 29
-11 60 -19 70 -9 9 -20 30 -26 45 -6 16 -15 26 -20 23 -9 -6 -15 26 -31 152
-6 41 -19 103 -30 139 -25 82 -25 104 1 137 17 22 28 26 71 26 29 0 62 -7 78
-17z m657 1 c-3 -3 -12 -4 -19 -1 -8 3 -5 6 6 6 11 1 17 -2 13 -5z m236 -11
c-7 -2 -19 -2 -25 0 -7 3 -2 5 12 5 14 0 19 -2 13 -5z m100 0 c-7 -2 -19 -2
-25 0 -7 3 -2 5 12 5 14 0 19 -2 13 -5z m-1215 -31 c61 -57 64 -161 5 -163
-22 -1 -18 -3 15 -11 42 -9 44 -11 38 -41 -3 -18 -8 -72 -12 -122 -4 -60 -12
-96 -22 -108 -21 -24 -24 -47 -6 -47 8 0 14 -4 14 -9 0 -14 -76 -41 -115 -41
-43 0 -46 -15 -5 -23 33 -7 35 -13 20 -52 -8 -20 -15 -25 -30 -20 -16 5 -20 2
-20 -14 0 -12 4 -21 9 -21 5 0 12 -8 15 -17 6 -14 2 -13 -15 4 -21 20 -23 37
-35 237 -7 118 -21 252 -30 296 -19 97 -14 124 29 146 77 40 107 41 145 6z
m2749 2 c2 -6 -42 -41 -98 -79 -96 -66 -102 -68 -115 -50 -13 17 -9 21 56 56
39 20 85 48 103 62 32 26 48 29 54 11z m-117 -28 c0 -2 -7 -7 -16 -10 -8 -3
-12 -2 -9 4 6 10 25 14 25 6z m-5507 -28 c15 -8 25 -38 11 -38 -9 0 -48 22
-74 43 l-25 19 35 -7 c19 -4 43 -11 53 -17z m2214 0 c-3 -8 -6 -5 -6 6 -1 11
2 17 5 13 3 -3 4 -12 1 -19z m-289 -5 c-9 -2 -21 -16 -27 -31 l-9 -27 -1 26
c-1 31 6 39 33 38 16 -1 17 -2 4 -6z m232 -3 c0 -5 -4 -10 -10 -10 -5 0 -10 5
-10 10 0 6 5 10 10 10 6 0 10 -4 10 -10z m-2090 -26 c0 -2 -7 -4 -15 -4 -8 0
-15 4 -15 10 0 5 7 7 15 4 8 -4 15 -8 15 -10z m2157 -21 c-3 -10 -5 -4 -5 12
0 17 2 24 5 18 2 -7 2 -21 0 -30z m1100 0 c-3 -10 -5 -4 -5 12 0 17 2 24 5 18
2 -7 2 -21 0 -30z m-1120 -5 c-3 -8 -6 -5 -6 6 -1 11 2 17 5 13 3 -3 4 -12 1
-19z m443 8 c19 -1 -28 -3 -105 -4 -77 -1 -145 2 -152 6 -10 6 176 6 257 -2z
m-484 -32 c-4 -14 -9 -24 -12 -21 -3 2 -2 17 2 31 3 15 9 25 11 22 3 -3 2 -17
-1 -32z m-259 -6 c-3 -8 -6 -5 -6 6 -1 11 2 17 5 13 3 -3 4 -12 1 -19z m-1993
-4 c3 -8 2 -12 -4 -9 -6 3 -10 10 -10 16 0 14 7 11 14 -7z m1875 -20 c40 -8
31 -23 -11 -18 -18 1 -50 3 -71 3 -23 1 -36 5 -32 11 7 11 66 13 114 4z m394
-41 c3 -24 1 -43 -4 -43 -5 0 -9 21 -9 47 0 56 5 54 13 -4z m2568 26 c11 -11
14 -21 9 -24 -6 -4 -10 -2 -10 4 0 6 -9 15 -19 21 -16 8 -19 7 -17 -13 2 -12
8 -32 14 -44 7 -12 12 -30 11 -40 0 -15 -2 -15 -9 3 -8 21 -50 57 -57 50 -2
-2 1 -14 6 -27 9 -21 10 -22 11 -4 l1 20 9 -20 c12 -27 12 -43 0 -25 -8 12
-10 8 -11 -15 l-1 -30 -8 33 c-4 19 -13 39 -20 45 -8 9 -9 7 -4 -8 5 -11 -6
-4 -25 18 -18 20 -38 37 -44 37 -6 0 -1 -10 11 -23 15 -16 18 -27 12 -37 -9
-13 -14 -7 -11 12 0 4 -6 5 -13 2 -17 -7 -28 -32 -20 -45 3 -5 0 -9 -5 -9 -6
0 -11 9 -11 19 0 29 -15 33 -35 11 -9 -10 -23 -16 -31 -13 -8 3 -14 1 -14 -4
0 -5 -15 -7 -33 -5 -21 2 -34 9 -34 18 0 8 4 14 9 14 4 0 8 -4 8 -10 0 -22 28
-8 29 15 5 71 3 67 41 62 20 -2 45 0 56 6 49 28 180 31 205 6z m-2524 -21 c-3
-8 -6 -5 -6 6 -1 11 2 17 5 13 3 -3 4 -12 1 -19z m3470 -30 c-3 -8 -6 -5 -6 6
-1 11 2 17 5 13 3 -3 4 -12 1 -19z m-127 -24 c0 -8 -4 -12 -10 -9 -5 3 -10 13
-10 21 0 8 5 12 10 9 6 -3 10 -13 10 -21z m-2944 -8 c-3 -18 -1 -23 10 -19 8
3 14 1 14 -5 0 -9 -30 -26 -35 -20 -3 3 -8 49 -6 61 1 4 6 7 11 7 6 0 8 -11 6
-24z m-386 2 c0 -7 3 -24 6 -38 4 -18 3 -21 -4 -10 -17 27 -24 60 -13 60 6 0
11 -6 11 -12z m288 -26 c3 -16 -1 -20 -12 -16 -19 7 -22 48 -3 42 6 -3 13 -14
15 -26z m1695 -52 c-6 -7 -43 43 -43 59 0 8 11 -1 23 -20 13 -19 22 -36 20
-39z m1393 15 c13 -31 24 -59 24 -63 0 -12 -60 92 -60 106 0 25 12 11 36 -43z
m-1338 33 c-2 -6 -9 -20 -17 -29 -14 -17 -15 -17 -28 1 -8 11 -11 25 -8 30 9
14 56 13 53 -2z m-85 -55 c11 -13 15 -23 9 -23 -14 0 -42 40 -41 60 0 13 1 13
6 0 3 -8 15 -25 26 -37z m92 -6 c-4 -14 -15 -33 -25 -42 -17 -16 -19 -15 -30
4 -9 17 -8 21 4 21 8 0 23 11 33 24 22 29 26 27 18 -7z m-1638 -29 c-3 -8 -6
-5 -6 6 -1 11 2 17 5 13 3 -3 4 -12 1 -19z m3081 0 c19 -19 14 -28 -13 -28
-18 0 -25 5 -25 20 0 22 20 26 38 8z m-345 -5 c32 -4 44 -9 35 -14 -24 -16 11
-27 101 -33 47 -4 106 -11 131 -17 25 -5 70 -14 100 -20 127 -22 270 -63 270
-78 0 -4 14 -12 30 -18 21 -8 28 -16 24 -27 -4 -11 2 -19 21 -26 20 -8 26 -15
22 -30 -4 -17 0 -20 28 -20 27 0 37 6 54 35 32 55 41 44 41 -52 0 -125 -13
-186 -58 -283 -21 -47 -42 -92 -46 -100 -3 -8 -4 0 -1 19 3 19 21 68 39 110
19 41 33 77 30 80 -7 8 -14 -4 -59 -105 -35 -77 -45 -92 -45 -69 0 56 -9 71
-50 82 -21 5 -45 6 -52 2 -7 -5 -44 -9 -81 -9 -50 0 -69 4 -73 14 -3 8 -31 22
-62 31 -31 9 -67 21 -80 26 -13 5 -32 9 -42 9 -11 0 -20 5 -20 11 0 7 10 9 25
5 31 -8 32 8 3 28 -16 11 -18 16 -8 17 10 0 11 2 3 6 -7 2 -20 -3 -29 -12 -11
-11 -26 -15 -41 -11 -12 3 -35 9 -49 12 -15 4 -35 15 -45 25 -11 11 -34 19
-51 19 -18 1 -44 7 -58 15 -14 8 -28 14 -32 15 -4 0 -13 -27 -20 -60 -10 -49
-17 -63 -39 -74 -25 -13 -26 -12 -18 13 4 14 13 55 19 91 11 61 58 175 69 165
2 -3 5 -22 5 -43 1 -32 5 -37 26 -40 14 -2 32 -10 40 -17 40 -33 93 -26 84 11
-5 21 -3 24 20 24 14 0 26 5 26 10 0 6 9 10 20 10 11 0 20 5 20 11 0 6 -8 9
-17 7 -11 -2 -22 5 -28 17 -6 11 -31 30 -58 43 -26 12 -47 27 -47 33 0 6 -5 7
-10 4 -6 -3 -18 1 -27 10 -15 16 -18 15 -34 -7 -40 -51 -102 -197 -114 -265
-7 -44 -21 -57 -27 -25 -5 21 25 166 43 207 7 17 23 44 35 60 12 17 21 38 21
48 0 16 -1 16 -17 -1 -24 -26 -64 -134 -86 -229 -17 -77 -34 -109 -34 -63 0
11 -5 20 -11 20 -6 0 -13 -9 -16 -20 -3 -11 -9 -20 -13 -20 -16 0 -40 12 -40
21 0 4 7 6 15 3 9 -4 15 0 15 10 0 9 -5 15 -12 14 -16 -4 -18 26 -9 147 4 55
7 102 5 104 -7 9 -23 -83 -27 -157 -3 -46 -7 -85 -10 -88 -10 -10 -37 9 -29
20 5 6 12 27 16 46 7 42 -4 28 -36 -43 -26 -60 -34 -55 -14 9 9 27 20 90 25
139 6 50 15 121 22 158 l11 68 117 -1 c64 -1 138 -4 164 -7z m-1043 -30 c0
-22 -17 -49 -25 -41 -8 8 5 58 16 58 5 0 9 -8 9 -17z m-427 -100 c-7 -2 -21
-2 -30 0 -10 3 -4 5 12 5 17 0 24 -2 18 -5z m-70 -10 c-7 -2 -21 -2 -30 0 -10
3 -4 5 12 5 17 0 24 -2 18 -5z m-233 -12 c0 -5 -11 -8 -25 -8 -13 0 -22 3 -19
8 3 5 14 9 25 9 10 0 19 -4 19 -9z m-1102 -33 c-7 -10 -17 -18 -23 -16 -12 3
-7 31 8 40 19 12 29 -3 15 -24z m-378 2 c0 -5 -5 -10 -11 -10 -5 0 -7 5 -4 10
3 6 8 10 11 10 2 0 4 -4 4 -10z m1911 -6 c-18 -8 -48 -13 -65 -12 l-31 4 25
11 c14 7 43 12 65 12 l40 -1 -34 -14z m-571 -24 c0 -5 -5 -10 -11 -10 -5 0 -7
5 -4 10 3 6 8 10 11 10 2 0 4 -4 4 -10z m426 -64 c0 -15 -5 -21 -10 -16 -5 5
-6 16 -3 24 9 23 15 19 13 -8z m478 -33 c-4 -10 -7 -27 -7 -38 1 -20 -20 -23
-87 -16 -24 2 10 21 39 21 18 0 22 4 18 20 -5 19 5 28 32 29 9 1 11 -5 5 -16z
m-1639 -33 c-10 -11 -27 -22 -37 -26 -18 -5 -17 -10 18 -45 38 -39 39 -39 46
-17 4 17 6 12 7 -19 1 -53 -11 -50 -64 17 -22 28 -43 50 -47 50 -23 0 -2 20
37 37 25 10 45 22 45 27 0 5 3 6 7 3 3 -4 -2 -16 -12 -27z m43 -23 c5 -24 -15
-21 -21 4 -3 13 -1 19 6 16 7 -2 13 -11 15 -20z m3572 -117 c7 -13 16 -50 19
-82 l7 -58 -27 0 c-15 0 -35 7 -43 16 -13 12 -17 13 -20 2 -11 -35 -16 -40
-11 -13 6 28 22 198 25 255 1 16 8 3 19 -36 10 -33 24 -71 31 -84z m-3720 56
c0 -12 -5 -7 -19 24 -11 24 -11 24 3 6 9 -11 16 -24 16 -30z m1727 38 c-24
-25 -208 -42 -252 -24 -19 7 -18 8 5 14 14 3 61 7 105 9 44 2 95 4 114 5 19 1
32 -1 28 -4z m-727 -42 c0 -1 -9 2 -20 8 -11 6 -20 15 -20 20 0 6 9 2 20 -7
11 -10 20 -19 20 -21z m1480 18 c0 -5 -6 -10 -14 -10 -8 0 -18 5 -21 10 -3 6
3 10 14 10 12 0 21 -4 21 -10z m-2566 -16 c22 -21 20 -44 -3 -44 -21 0 -33 22
-25 45 8 19 9 19 28 -1z m1071 -40 c92 -31 201 -79 210 -93 3 -5 0 -13 -6 -17
-8 -5 -9 -3 -4 6 5 9 2 10 -13 6 -11 -4 -23 -3 -26 2 -3 5 -26 15 -51 22 -24
7 -50 19 -56 26 -6 8 -18 14 -26 14 -7 0 -27 10 -44 22 -21 16 -42 22 -71 21
-23 -1 -49 2 -57 7 -14 8 -14 9 2 10 10 0 16 4 13 9 -7 10 4 7 129 -35z
m-1065 -18 c0 -11 -19 -15 -25 -6 -3 5 1 10 9 10 9 0 16 -2 16 -4z m901 -28
c-8 -37 -41 -53 -41 -20 0 11 -3 27 -6 36 -5 12 1 16 24 16 28 0 29 -2 23 -32z
m929 -28 c0 -12 -35 -31 -44 -23 -8 9 14 33 30 33 8 0 14 -4 14 -10z m-1040
-35 c-9 -42 -5 -43 59 -10 l49 24 84 -28 c100 -35 240 -93 235 -97 -2 -2 -28
6 -58 17 -40 16 -58 18 -71 10 -12 -8 -19 -7 -24 1 -4 6 -3 8 4 4 6 -3 13 -2
16 3 3 4 -14 16 -37 25 -44 17 -80 22 -62 8 6 -4 10 -26 10 -49 1 -24 -2 -38
-6 -32 -10 17 -18 -3 -12 -34 4 -18 15 -32 31 -38 13 -5 22 -12 19 -16 -4 -3
-19 -1 -34 6 -15 6 -39 11 -53 10 -14 -1 -41 2 -60 6 -55 12 -26 -8 65 -46 80
-33 149 -69 143 -75 -2 -1 -30 10 -63 26 -73 36 -82 37 -61 5 21 -32 20 -86
-1 -124 -16 -28 -16 -33 -3 -41 11 -8 7 -9 -15 -4 -29 6 -28 5 10 -20 22 -14
45 -26 51 -26 6 0 19 -10 30 -22 19 -23 19 -23 -1 -7 -48 38 -86 20 -42 -20
172 -155 176 -160 152 -194 -16 -21 -16 -21 -10 14 6 33 3 39 -41 77 -53 47
-76 55 -45 16 14 -18 18 -31 11 -38 -5 -7 -13 -44 -18 -83 -8 -68 -7 -72 15
-89 13 -9 21 -19 18 -22 -2 -3 -41 23 -85 57 -80 61 -121 85 -234 136 -77 34
-84 25 -10 -14 78 -40 58 -40 -26 1 -36 17 -72 35 -81 39 -9 4 -26 5 -38 2
-16 -4 -21 -1 -21 13 0 48 107 374 131 399 5 5 9 16 9 25 0 8 7 28 15 44 8 15
15 38 15 50 0 11 7 41 16 65 8 24 13 45 11 48 -10 10 -87 -11 -87 -23 0 -17
-17 -19 -22 -2 -3 8 -23 6 -76 -7 -55 -14 -72 -23 -72 -36 0 -10 -4 -21 -10
-24 -6 -4 -10 8 -10 27 0 25 4 34 18 34 21 1 256 54 261 60 13 13 18 0 11 -31z
m3365 -5 c-3 -5 -15 -10 -26 -10 -10 0 -19 5 -19 10 0 6 12 10 26 10 14 0 23
-4 19 -10z m32 -89 c-5 -71 -11 -105 -26 -136 -5 -11 -16 -36 -25 -55 l-16
-35 0 37 c0 20 5 38 10 40 6 2 13 18 15 36 2 18 9 58 15 89 5 31 10 73 10 92
1 31 2 33 11 17 7 -10 9 -46 6 -85z m-4247 32 c0 -7 -10 -13 -22 -13 -20 1
-21 2 -7 13 9 7 14 19 12 27 -4 13 -3 13 6 0 6 -8 11 -21 11 -27z m2165 5 c-6
-16 -14 -28 -17 -26 -3 2 -25 -15 -49 -37 -25 -23 -86 -60 -141 -85 -90 -41
-126 -65 -78 -53 32 9 23 -12 -13 -29 -28 -13 -37 -14 -58 -3 l-24 13 35 5
c20 2 3 5 -40 6 -61 3 -69 4 -42 11 18 4 42 6 52 3 10 -3 38 4 62 15 24 11 77
36 119 55 81 37 142 84 164 127 8 15 20 27 28 27 12 0 13 -5 2 -29z m2015 22
c0 -5 -2 -10 -4 -10 -3 0 -8 5 -11 10 -3 6 -1 10 4 10 6 0 11 -4 11 -10z m20
-19 c0 -10 -9 -21 -20 -24 -11 -3 -20 -1 -20 4 0 5 7 9 15 9 8 0 15 7 15 15 0
8 2 15 5 15 3 0 5 -8 5 -19z m-2762 -39 c-7 -18 -16 -32 -20 -32 -11 0 -10 7
8 41 20 39 27 33 12 -9z m2440 21 c5 -18 -29 -16 -53 3 -19 15 -18 15 14 12
19 -2 36 -9 39 -15z m-2811 -25 c-3 -8 -6 -5 -6 6 -1 11 2 17 5 13 3 -3 4 -12
1 -19z m1056 -32 c-10 -13 -29 -30 -42 -36 -18 -8 -15 -2 15 29 43 43 57 47
27 7z m-996 -23 c-3 -10 -5 -2 -5 17 0 19 2 27 5 18 2 -10 2 -26 0 -35z m2740
41 c-3 -3 -12 -4 -19 -1 -8 3 -5 6 6 6 11 1 17 -2 13 -5z m-2052 -14 c4 -6 -6
-10 -22 -9 -25 0 -26 1 -8 9 11 5 21 9 22 9 1 1 5 -3 8 -9z m-685 -84 c0 -3
-4 -8 -10 -11 -5 -3 -10 -1 -10 4 0 6 5 11 10 11 6 0 10 -2 10 -4z m197 -28
c-3 -8 -6 -5 -6 6 -1 11 2 17 5 13 3 -3 4 -12 1 -19z m-758 -108 c-4 -3 -11
-18 -14 -33 -4 -15 -12 -30 -18 -34 -7 -4 -8 0 -2 13 4 10 12 39 18 64 9 40
11 42 17 20 3 -14 3 -27 -1 -30z m676 -20 c10 -11 16 -20 13 -20 -3 0 -13 9
-23 20 -10 11 -16 20 -13 20 3 0 13 -9 23 -20z m45 -41 c0 -6 -4 -7 -10 -4 -5
3 -10 11 -10 16 0 6 5 7 10 4 6 -3 10 -11 10 -16z m1575 11 c-3 -5 -16 -15
-28 -21 -19 -9 -19 -8 3 10 28 23 34 26 25 11z m-2337 -60 c-7 -10 -14 -18
-15 -16 -6 6 9 36 18 36 5 0 4 -9 -3 -20z m1939 -2 c55 -8 83 -16 83 -25 0 -7
-4 -13 -8 -13 -5 0 -34 -16 -67 -35 -65 -39 -105 -53 -105 -36 0 6 7 11 15 11
8 0 15 9 15 19 0 11 3 27 7 37 5 14 3 16 -11 11 -14 -6 -17 -3 -14 11 6 21
-18 26 -42 8 -13 -10 -13 -9 -1 7 16 20 21 20 128 5z m253 -18 c-8 -5 -19 -10
-25 -10 -5 0 -3 5 5 10 8 5 20 10 25 10 6 0 3 -5 -5 -10z m-1585 -90 c10 -11
16 -20 13 -20 -3 0 -13 9 -23 20 -10 11 -16 20 -13 20 3 0 13 -9 23 -20z m338
2 c-2 -6 3 -9 11 -6 16 6 30 -22 16 -31 -6 -4 -10 -1 -10 4 0 6 -6 11 -14 11
-7 0 -16 9 -19 21 -3 13 -1 19 6 16 7 -3 11 -9 10 -15z m1232 -62 c-10 -11
-22 -20 -28 -20 -5 0 1 9 14 20 31 25 37 25 14 0z m-1474 -31 c-9 -22 -10 -22
-10 -3 -1 11 2 24 6 27 12 12 14 0 4 -24z m-620 -66 c-12 -20 -14 -14 -5 12 4
9 9 14 11 11 3 -2 0 -13 -6 -23z m1969 23 c0 -2 -7 -6 -15 -10 -8 -3 -15 -1
-15 4 0 6 7 10 15 10 8 0 15 -2 15 -4z m-1896 -63 c-9 -21 -18 -46 -21 -55 -3
-10 -8 -18 -12 -19 -59 -6 -72 -5 -76 1 -3 5 -1 11 5 15 5 3 17 21 26 40 12
25 23 35 40 35 12 0 26 5 29 10 3 6 10 10 16 10 5 0 2 -17 -7 -37z m241 17 c3
-5 1 -10 -4 -10 -6 0 -11 5 -11 10 0 6 2 10 4 10 3 0 8 -4 11 -10z m-61 -129
c-36 -66 -43 -59 -9 9 14 29 29 50 31 47 3 -3 -7 -28 -22 -56z m271 -37 c-19
-14 -18 -15 10 -13 17 2 40 -3 52 -9 14 -8 24 -9 28 -2 3 5 11 10 17 10 6 0 2
-10 -10 -23 -26 -27 -28 -39 -7 -31 8 4 15 1 15 -6 0 -6 5 -8 10 -5 17 10 23
-23 10 -55 -7 -17 -17 -27 -25 -24 -7 3 -16 1 -20 -5 -11 -18 -23 -12 -29 15
-7 25 -8 25 -25 10 -17 -16 -20 -14 -55 28 -20 24 -36 49 -36 56 0 25 31 69
52 72 32 5 36 -1 13 -18z m466 -93 c0 13 17 -16 18 -33 1 -11 -37 -10 -43 1
-3 4 -19 11 -36 14 -27 6 -45 37 -20 37 6 0 10 -4 10 -10 0 -5 7 -10 15 -10 8
0 15 7 15 17 0 13 4 11 20 -7 13 -15 20 -18 21 -9z m84 -21 c3 -5 1 -10 -4
-10 -6 0 -11 5 -11 10 0 6 2 10 4 10 3 0 8 -4 11 -10z m46 -24 c-9 -11 -6 -15
16 -21 16 -3 37 -16 48 -28 17 -19 20 -19 23 -5 3 18 32 14 32 -4 0 -6 8 -17
18 -24 31 -24 -27 -17 -86 11 -30 14 -68 25 -85 25 l-31 0 34 30 c38 32 49 38
31 16z m54 -9 c16 -5 15 -5 -4 -4 -14 1 -26 9 -28 17 -3 10 -2 11 4 4 4 -7 17
-14 28 -17z m-605 -18 c0 -11 -4 -18 -10 -14 -5 3 -7 12 -3 20 7 21 13 19 13
-6z m153 -7 c15 -15 27 -34 27 -40 0 -7 7 -25 16 -40 16 -27 16 -27 -3 -6 -24
27 -43 33 -69 23 -16 -5 -28 -2 -43 12 -23 22 -20 39 7 40 11 0 12 3 5 6 -7 2
-13 11 -13 19 0 24 45 16 73 -14z m187 -31 c0 -3 12 -7 28 -8 37 -2 127 -21
182 -38 25 -8 58 -17 74 -20 56 -12 17 -16 -49 -5 -74 12 -89 9 -53 -11 13 -7
60 -13 110 -13 88 -1 116 -16 47 -26 -44 -7 -51 -35 -12 -52 30 -14 43 -26 43
-45 0 -15 -82 -42 -142 -46 -45 -3 -50 -1 -90 40 -23 23 -39 46 -35 49 13 13
-14 46 -34 41 -15 -4 -26 8 -53 56 -47 84 -52 99 -32 91 9 -3 16 -9 16 -13z
m1880 -5 c0 -2 -8 -10 -17 -17 -16 -13 -17 -12 -4 4 13 16 21 21 21 13z
m-1415 -116 c3 -6 -1 -7 -9 -4 -18 7 -21 14 -7 14 6 0 13 -4 16 -10z m-541
-52 c10 -18 39 -54 64 -80 l46 -48 -69 -2 c-266 -6 -356 -5 -361 3 -3 5 3 12
13 15 10 3 26 10 35 15 23 12 31 11 23 -2 -5 -7 3 -9 21 -7 21 2 29 8 27 21 0
11 7 27 18 38 15 15 19 16 19 4 0 -12 28 -35 43 -35 6 0 22 70 20 88 -1 9 5
11 15 7 10 -4 23 -9 29 -12 7 -3 16 2 19 11 9 23 18 20 38 -16z m1794 -23 c-6
-14 -13 -23 -15 -21 -5 5 15 46 22 46 3 0 -1 -11 -7 -25z m-1991 -17 c-3 -8
-6 -5 -6 6 -1 11 2 17 5 13 3 -3 4 -12 1 -19z m1954 -99 c-10 -44 -14 -195 -4
-171 6 14 33 16 33 2 0 -6 -11 -15 -25 -20 -22 -8 -25 -16 -25 -55 0 -28 4
-44 10 -40 6 3 10 19 10 34 0 16 9 36 21 47 l22 19 -7 -29 c-4 -15 -9 -40 -12
-55 -3 -14 -12 -35 -20 -46 -13 -17 -16 -18 -24 -5 -7 12 -11 10 -18 -10 l-9
-24 -12 21 c-15 29 -14 63 3 63 14 0 33 101 27 149 -3 27 28 175 35 168 3 -2
0 -24 -5 -48z m-1311 36 c0 -16 -51 -35 -76 -29 l-29 7 35 13 c36 13 70 17 70
9z m-26 -60 c-5 -12 -10 -13 -20 -4 -19 15 -18 19 6 19 13 0 18 -5 14 -15z
m-144 -76 c49 -23 90 -46 90 -50 0 -11 -34 -29 -54 -29 -9 0 -15 6 -13 12 1 7
-8 14 -20 16 -27 4 -31 -14 -5 -21 9 -3 1 -5 -18 -6 -24 0 -31 2 -21 8 8 5 11
16 8 25 -5 12 -21 16 -67 16 -33 0 -60 -4 -60 -10 0 -5 11 -10 24 -10 14 0 28
-5 32 -12 5 -7 3 -8 -6 -3 -7 4 -16 2 -20 -5 -7 -11 -19 -11 -64 -1 -31 7 -56
17 -56 23 0 6 -12 8 -29 5 -17 -4 -36 0 -47 8 -17 12 -15 13 24 10 39 -3 42
-2 37 16 -7 21 5 25 23 7 9 -9 12 -8 12 5 0 9 5 17 10 17 6 0 10 -8 10 -17 0
-11 3 -14 8 -7 6 9 76 38 104 43 4 0 48 -18 98 -40z m1165 -48 c-3 -6 -11 -11
-17 -11 -6 0 -6 6 2 15 14 17 26 13 15 -4z m-215 -30 c0 -6 -8 -3 -18 7 -11 9
-17 20 -15 25 5 9 33 -18 33 -32z m-1229 -10 c15 -6 18 -10 8 -10 -9 -1 -25 7
-36 17 -10 9 -14 14 -8 10 6 -4 22 -12 36 -17z m549 5 c0 -8 -14 -22 -32 -30
-36 -19 -48 -20 -48 -6 0 6 7 10 15 10 8 0 15 4 15 9 0 4 -8 8 -17 8 -41 0
-45 6 -8 13 64 11 75 11 75 -4z m70 -3 c5 -4 -20 -23 -32 -23 -4 0 -12 9 -18
20 -10 19 -9 20 17 14 15 -4 30 -9 33 -11z m-262 -21 c17 -2 22 -8 22 -32 0
-45 -20 -80 -46 -80 -13 0 -27 -7 -32 -16 -6 -11 -11 -13 -16 -5 -9 14 -196
15 -196 1 0 -10 19 -14 51 -11 8 1 29 -5 45 -14 16 -8 48 -15 72 -15 31 0 42
-4 42 -15 0 -8 7 -15 16 -15 11 0 14 -5 9 -17 -4 -10 -11 -54 -16 -98 -4 -44
-8 -80 -8 -80 -1 0 -30 0 -66 0 -67 0 -73 3 -53 23 6 6 9 15 5 18 -7 7 -31
-14 -39 -36 -8 -21 -53 -23 -69 -4 -10 12 -14 12 -21 2 -6 -10 -11 -9 -20 7
-11 19 -11 19 -19 0 -7 -19 -8 -19 -15 3 -3 12 -11 22 -16 22 -5 0 -7 -4 -4
-8 2 -4 1 -14 -5 -22 -7 -13 -9 -13 -9 1 0 8 -7 24 -16 35 -8 10 -13 13 -9 7
3 -7 3 -13 -1 -13 -12 0 -33 34 -34 53 0 10 -4 16 -8 13 -4 -2 -14 15 -21 40
-12 39 -17 44 -42 44 -29 0 -38 13 -18 26 6 3 16 0 21 -7 7 -10 8 -8 5 9 -10
45 16 16 39 -43 18 -48 23 -54 23 -32 1 16 -4 37 -9 48 -17 31 15 24 39 -8 11
-16 21 -23 21 -17 0 5 -8 19 -19 30 -10 11 -22 30 -25 42 -6 18 -3 22 12 22
24 0 32 18 32 73 1 32 3 38 10 25 8 -13 19 -15 48 -11 20 3 40 12 45 19 4 7
26 15 50 19 23 4 47 10 54 14 10 5 130 7 191 3z m-661 -34 c-3 -8 -6 -5 -6 6
-1 11 2 17 5 13 3 -3 4 -12 1 -19z m953 12 c0 -5 0 -13 0 -17 1 -4 -20 -12
-45 -18 -41 -11 -45 -10 -45 7 0 20 30 36 68 37 12 1 22 -3 22 -9z m-6 -95
c-5 -11 -2 -14 12 -9 11 4 25 12 33 18 18 14 13 -10 -20 -106 -19 -52 -28 -66
-40 -63 -9 3 -22 -1 -28 -9 -10 -11 -8 -17 6 -26 16 -10 16 -10 -3 -5 -15 4
-24 -1 -34 -19 -20 -39 -60 -46 -60 -10 0 8 -5 14 -11 14 -8 0 -8 5 1 15 7 8
19 15 26 15 8 0 14 6 14 13 0 8 18 39 40 70 22 32 37 57 35 57 -11 0 -69 -57
-86 -85 -11 -16 -19 -25 -19 -20 0 6 4 17 10 25 5 9 5 19 -2 27 -6 8 -6 13 -1
13 5 0 15 18 22 39 12 40 38 58 88 60 16 1 21 -3 17 -14z m146 -114 c29 -39
38 -63 39 -112 1 -31 -3 -37 -31 -50 -34 -15 -78 -14 -78 1 0 5 -7 7 -16 3 -8
-3 -26 0 -40 7 -22 12 -23 15 -10 34 7 12 18 45 25 74 6 29 18 69 27 90 l15
37 22 -26 c12 -14 33 -40 47 -58z m203 62 c-7 -2 -19 -2 -25 0 -7 3 -2 5 12 5
14 0 19 -2 13 -5z m-18 -33 c-39 -6 -36 -13 10 -23 11 -3 3 -5 -17 -6 -32 -1
-38 2 -38 19 0 17 6 20 43 19 l42 -2 -40 -7z m-1260 -20 c3 -5 1 -10 -4 -10
-6 0 -11 5 -11 10 0 6 2 10 4 10 3 0 8 -4 11 -10z m1335 0 c12 -8 11 -10 -7
-10 -12 0 -25 5 -28 10 -8 13 15 13 35 0z m-543 -6 c-3 -3 -12 -4 -19 -1 -8 3
-5 6 6 6 11 1 17 -2 13 -5z m-665 -36 c-7 -7 -12 -8 -12 -2 0 14 12 26 19 19
2 -3 -1 -11 -7 -17z m-121 -21 c-10 -9 -11 -8 -5 6 3 10 9 15 12 12 3 -3 0
-11 -7 -18z m105 -7 c8 0 14 -4 14 -10 0 -5 -9 -10 -19 -10 -11 0 -21 -5 -23
-12 -3 -8 -9 -8 -24 0 -10 6 -15 12 -10 12 5 0 2 8 -5 17 -13 15 -11 16 20 10
18 -4 40 -7 47 -7z m54 -25 c20 -24 6 -28 -15 -5 -10 11 -13 20 -8 20 6 0 16
-7 23 -15z m1840 11 c0 -2 -13 -6 -30 -8 -16 -3 -30 -1 -30 4 0 4 14 8 30 8
17 0 30 -2 30 -4z m-1325 -24 c-3 -3 -11 0 -18 7 -9 10 -8 11 6 5 10 -3 15 -9
12 -12z m-550 -22 c4 -6 -5 -10 -20 -10 -15 0 -24 4 -20 10 3 6 12 10 20 10 8
0 17 -4 20 -10z m505 -10 c0 -5 -2 -10 -4 -10 -3 0 -8 5 -11 10 -3 6 -1 10 4
10 6 0 11 -4 11 -10z m280 6 c0 -11 -19 -15 -25 -6 -3 5 1 10 9 10 9 0 16 -2
16 -4z m1067 -2 c-3 -3 -12 -4 -19 -1 -8 3 -5 6 6 6 11 1 17 -2 13 -5z m-592
-24 c4 -6 -12 -10 -42 -9 -43 1 -45 2 -18 9 44 11 53 11 60 0z m622 -36 c-3
-4 -21 -8 -39 -10 -24 -3 -29 -1 -18 6 16 11 67 14 57 4z m-254 -34 c-4 -13 0
-20 9 -20 8 0 27 -13 42 -29 27 -28 27 -29 7 -36 -25 -7 -27 -27 -6 -45 21
-18 19 -32 -5 -25 -11 4 -20 2 -20 -4 0 -6 7 -11 15 -11 8 0 15 -6 15 -14 0
-8 2 -21 5 -29 3 -7 0 -14 -7 -14 -7 0 -23 -3 -35 -7 -18 -6 -23 -3 -23 10 0
13 -3 14 -15 4 -20 -16 -19 -27 3 -33 9 -3 1 -5 -18 -6 -20 0 -42 -7 -49 -13
-8 -7 -11 -8 -8 -3 7 13 -41 37 -49 24 -3 -5 -17 -9 -32 -10 -22 -1 -19 -3 12
-10 55 -13 54 -16 -8 -15 -30 1 -52 4 -49 9 2 4 -11 7 -29 8 l-33 1 33 10 c17
6 32 15 32 20 0 4 11 6 24 2 13 -3 27 -1 30 4 3 5 -6 13 -21 17 -16 4 -29 2
-33 -6 -5 -7 -20 -10 -36 -6 -17 3 -41 -1 -58 -10 -21 -11 -31 -12 -34 -4 -4
12 -48 5 -68 -10 -16 -13 -24 0 -24 35 1 88 37 103 72 31 12 -25 26 -45 30
-45 5 0 28 10 51 21 33 17 59 21 119 20 69 -1 77 1 75 17 -1 9 -6 23 -11 31
-5 8 -3 16 5 22 19 12 29 11 29 -1 0 -5 7 -10 15 -10 8 0 15 9 15 20 0 11 5
20 10 20 20 0 9 20 -14 26 -13 3 -29 17 -35 31 -13 29 -14 29 19 42 42 16 59
13 53 -9z m337 -11 c0 -5 -4 -8 -9 -5 -5 4 -11 2 -13 -3 -1 -4 -14 -12 -28
-15 -23 -7 -23 -6 5 13 35 23 45 25 45 10z m-675 -39 c-10 -11 -23 -20 -28
-20 -6 0 0 11 13 25 27 29 42 25 15 -5z m-1006 -10 c11 -24 11 -24 -3 -6 -9
11 -16 24 -16 30 0 12 5 7 19 -24z m0 -37 c9 1 22 6 29 11 9 5 17 -2 25 -23 6
-17 17 -31 24 -31 7 0 13 -7 13 -15 0 -8 -4 -15 -10 -15 -5 0 -10 5 -10 11 0
5 -4 7 -10 4 -5 -3 -15 5 -22 19 -6 14 -15 26 -20 26 -5 0 -4 -9 2 -19 19 -37
13 -43 -36 -36 -41 5 -46 3 -51 -15 -6 -24 -29 -21 -27 4 1 9 -2 16 -8 16 -5
0 -6 5 -3 10 4 6 11 8 16 5 5 -4 9 3 9 14 0 11 5 23 10 26 6 3 10 -3 10 -14 0
-12 4 -21 9 -21 14 0 26 43 13 48 -6 2 -8 11 -5 19 6 14 8 13 16 -5 5 -12 17
-20 26 -19z m921 -9 c0 -8 -4 -14 -10 -14 -5 0 -10 9 -10 21 0 11 5 17 10 14
6 -3 10 -13 10 -21z m720 -3 c0 -12 -67 -22 -88 -13 -11 5 0 9 33 13 28 3 51
7 53 7 1 1 2 -2 2 -7z m-1463 -7 c-3 -3 -12 -4 -19 -1 -8 3 -5 6 6 6 11 1 17
-2 13 -5z m1496 -35 c-7 -7 -36 -13 -65 -15 l-53 -3 54 10 c30 5 57 12 60 14
2 3 7 5 10 5 3 0 0 -5 -6 -11z m35 -39 c-7 -10 -14 -17 -17 -15 -4 4 18 35 25
35 2 0 -1 -9 -8 -20z m-1731 4 c-3 -3 -12 -4 -19 -1 -8 3 -5 6 6 6 11 1 17 -2
13 -5z m878 -65 c28 -19 28 -20 5 -14 -37 10 -83 38 -88 54 -3 8 0 11 7 7 6
-4 11 -1 11 6 0 7 8 3 18 -10 10 -12 31 -32 47 -43z m800 41 c-11 -5 -36 -8
-55 -8 l-35 1 40 7 c57 10 74 10 50 0z m35 -49 c0 -12 -44 -17 -90 -11 l-35 4
40 7 c62 10 85 10 85 0z m-920 -11 c0 -5 -7 -10 -15 -10 -8 0 -15 5 -15 10 0
6 7 10 15 10 8 0 15 -4 15 -10z m280 0 c-8 -5 -24 -10 -35 -10 -17 0 -17 2 -5
10 8 5 24 10 35 10 17 0 17 -2 5 -10z m-812 -32 c-2 -12 -9 -23 -17 -26 -8 -3
-11 0 -7 6 3 6 1 14 -5 18 -8 4 -7 9 2 15 23 14 31 10 27 -13z m96 7 c3 -8 1
-15 -4 -15 -6 0 -10 7 -10 15 0 8 2 15 4 15 2 0 6 -7 10 -15z m-267 -1 c-3 -3
-12 -4 -19 -1 -8 3 -5 6 6 6 11 1 17 -2 13 -5z m1637 -9 c-11 -8 -39 -14 -69
-14 l-50 1 60 13 c82 17 81 17 59 0z m-1388 -15 c8 0 14 -4 14 -10 0 -6 -10
-5 -25 2 -13 6 -21 16 -18 21 5 8 8 7 11 -1 2 -7 10 -12 18 -12z m399 10 c3
-5 2 -10 -4 -10 -5 0 -13 5 -16 10 -3 6 -2 10 4 10 5 0 13 -4 16 -10z m98 3
c-7 -2 -19 -2 -25 0 -7 3 -2 5 12 5 14 0 19 -2 13 -5z m-203 -22 c17 -34 12
-43 -19 -36 -21 4 -32 2 -38 -9 -7 -12 -16 -13 -53 -4 -77 18 -76 17 -50 35
19 13 28 14 55 5 45 -17 62 -15 68 8 7 25 23 26 37 1z m364 -9 c2 -4 -4 -9
-15 -9 -11 -1 -17 2 -14 8 7 11 22 12 29 1z m681 -42 c-11 -5 -29 -9 -40 -9
l-20 0 20 9 c11 5 29 9 40 9 l20 0 -20 -9z m125 -36 c0 -8 -5 -12 -10 -9 -6 4
-8 11 -5 16 9 14 15 11 15 -7z m-35 -24 c4 -6 -20 -9 -67 -8 -71 1 -72 1 -23
8 78 11 83 11 90 0z m-222 -45 c-15 -13 -22 -25 -15 -25 7 0 10 -5 6 -11 -4
-8 -9 -7 -15 2 -8 12 -11 11 -19 -1 -9 -13 -12 -13 -21 3 -6 10 -22 17 -41 17
-46 0 -27 11 44 25 90 18 92 18 61 -10z m260 -2 c-11 -11 -25 -17 -31 -15 -7
2 -12 -1 -12 -7 0 -12 -70 -13 -110 -2 -18 5 -2 9 54 14 51 3 84 11 94 21 9 9
18 14 20 12 2 -3 -5 -13 -15 -23z m25 -45 c-21 -32 -107 -55 -150 -40 l-33 10
40 0 c62 -1 119 13 133 34 19 26 27 22 10 -4z m15 -52 c-16 -23 -77 -46 -89
-33 -3 2 11 8 30 11 21 4 40 16 51 32 9 14 19 23 22 21 3 -3 -3 -17 -14 -31z
m-1905 -5 c-7 -12 -16 -21 -21 -21 -4 0 0 11 10 24 22 29 30 27 11 -3z m247 1
c-3 -3 -11 0 -18 7 -9 10 -8 11 6 5 10 -3 15 -9 12 -12z m1693 -40 c-13 -16
-27 -29 -33 -30 -5 -1 -23 -4 -40 -7 -24 -4 -23 -2 9 10 22 8 45 24 53 35 8
11 19 20 24 20 6 0 0 -13 -13 -28z m-168 8 c8 -5 11 -10 5 -10 -5 0 -17 5 -25
10 -8 5 -10 10 -5 10 6 0 17 -5 25 -10z m-480 -10 c0 -5 -12 -10 -26 -10 -14
0 -23 4 -19 10 3 6 15 10 26 10 10 0 19 -4 19 -10z m445 -10 c3 -6 -1 -7 -9
-4 -18 7 -21 14 -7 14 6 0 13 -4 16 -10z m267 -70 c-17 -29 -89 -66 -114 -58
-7 3 9 10 36 18 35 10 51 20 62 43 22 42 3 58 -28 23 -13 -15 -37 -28 -58 -31
l-35 -5 42 17 c29 11 46 26 54 46 l13 30 22 -27 c22 -25 22 -27 6 -56z m-755
-5 c-26 -7 -57 -10 -70 -7 -22 6 -22 6 3 13 14 4 45 7 70 7 l45 0 -48 -13z
m870 -45 c15 0 15 -7 3 -35 -8 -19 -9 -19 -9 -1 -1 17 -27 45 -42 46 -4 0 -9
-13 -12 -28 -4 -17 -16 -33 -32 -40 -36 -17 -46 -14 -14 3 29 16 52 65 39 85
-6 9 -12 4 -24 -17 -9 -18 -29 -35 -47 -42 -47 -16 -49 -13 -5 10 22 12 43 32
49 49 l11 28 35 -29 c20 -16 41 -29 48 -29z m-272 -29 c-6 -5 -25 10 -25 20 0
5 6 4 14 -3 8 -7 12 -15 11 -17z m-672 -6 c-11 -15 -28 -24 -45 -25 -36 0 -35
6 5 30 46 28 62 26 40 -5z m-1049 -17 c-3 -5 -12 -2 -20 6 -20 21 -17 28 5 14
11 -7 17 -16 15 -20z m1966 18 c0 -8 -9 -24 -20 -37 l-19 -24 17 37 c19 41 22
45 22 24z m-200 -34 c0 -4 -4 -14 -10 -22 -8 -12 -10 -12 -14 3 -16 49 -16 48
4 37 11 -6 20 -14 20 -18z m-845 -2 c-3 -5 -11 -10 -16 -10 -6 0 -7 5 -4 10 3
6 11 10 16 10 6 0 7 -4 4 -10z m1056 -13 c-10 -9 -11 -8 -5 6 3 10 9 15 12 12
3 -3 0 -11 -7 -18z m56 1 c-3 -8 -6 -5 -6 6 -1 11 2 17 5 13 3 -3 4 -12 1 -19z
m-36 -21 c-10 -9 -11 -8 -5 6 3 10 9 15 12 12 3 -3 0 -11 -7 -18z m-1104 -63
c-12 -12 30 -45 49 -38 16 5 16 4 4 -5 -20 -15 -90 -11 -90 5 0 7 6 15 13 17
7 3 4 6 -6 6 -25 1 -11 21 15 21 12 0 19 -3 15 -6z m983 -25 c0 -6 -4 -7 -10
-4 -5 3 -10 11 -10 16 0 6 5 7 10 4 6 -3 10 -11 10 -16z m-1076 -20 c-8 -14
-54 -10 -54 4 0 9 10 12 30 9 16 -2 27 -8 24 -13z m-97 -17 c45 3 46 2 50 -29
5 -40 -1 -41 -32 -7 -21 22 -27 25 -40 14 -11 -9 -15 -9 -15 -1 0 7 -4 9 -10
6 -6 -4 -10 5 -9 22 1 18 3 21 6 10 4 -14 13 -17 50 -15z m156 -16 c4 -7 10
-8 15 -1 9 12 53 15 46 3 -12 -19 -54 -28 -74 -15 -16 9 -24 9 -41 -1 -12 -7
-24 -11 -27 -8 -3 3 1 6 9 6 12 0 11 2 -1 10 -12 8 -12 12 -2 18 16 11 64 3
75 -12z m1072 -36 c3 -5 1 -10 -4 -10 -6 0 -11 5 -11 10 0 6 2 10 4 10 3 0 8
-4 11 -10z m-45 -55 c0 -15 -6 -25 -15 -25 -12 0 -13 4 -3 25 6 14 13 25 15
25 1 0 3 -11 3 -25z m-1643 -11 c-3 -3 -12 -4 -19 -1 -8 3 -5 6 6 6 11 1 17
-2 13 -5z m1563 -9 c0 -8 -4 -15 -10 -15 -5 0 -7 7 -4 15 4 8 8 15 10 15 2 0
4 -7 4 -15z m-1266 -129 c3 -54 9 -108 12 -120 4 -17 -1 -24 -25 -33 -37 -13
-39 -11 -41 47 -3 51 8 100 21 100 5 0 9 28 9 62 0 96 17 56 24 -56z m1206 75
c0 -6 -4 -13 -10 -16 -5 -3 -10 1 -10 9 0 9 5 16 10 16 6 0 10 -4 10 -9z
m-663 -23 c-3 -8 -6 -5 -6 6 -1 11 2 17 5 13 3 -3 4 -12 1 -19z m-862 -386
c-3 -3 -11 0 -18 7 -9 10 -8 11 6 5 10 -3 15 -9 12 -12z"/>
<path d="M7370 5609 c-24 -10 -22 -11 30 -30 62 -22 190 -35 190 -19 0 6 -16
10 -35 10 -19 0 -35 4 -35 8 0 6 -55 25 -110 37 -8 2 -26 -1 -40 -6z"/>
<path d="M7855 5540 c16 -6 12 -9 -20 -12 l-40 -4 40 -18 c22 -11 34 -21 28
-23 -7 -3 -13 -9 -13 -14 0 -5 13 -3 30 6 16 8 35 15 42 15 7 0 24 9 38 20
l25 20 -42 0 c-23 0 -45 5 -48 10 -3 6 -18 10 -33 9 -24 0 -25 -1 -7 -9z"/>
<path d="M7928 5463 c6 -2 18 -2 25 0 6 3 1 5 -13 5 -14 0 -19 -2 -12 -5z"/>
<path d="M6405 4350 c3 -5 8 -10 11 -10 2 0 4 5 4 10 0 6 -5 10 -11 10 -5 0
-7 -4 -4 -10z"/>
<path d="M6771 4328 c-1 -41 7 -68 20 -68 13 0 10 41 -6 75 l-13 30 -1 -37z"/>
<path d="M6214 4356 c-28 -21 -12 -29 25 -13 17 7 28 16 24 20 -10 11 -27 8
-49 -7z"/>
<path d="M7870 4480 c0 -5 5 -10 11 -10 5 0 7 5 4 10 -3 6 -8 10 -11 10 -2 0
-4 -4 -4 -10z"/>
<path d="M7890 4450 c-23 -7 -23 -8 -3 -9 12 -1 25 4 28 9 3 6 5 10 3 9 -2 -1
-14 -5 -28 -9z"/>
<path d="M8637 4223 c2 -38 6 -79 9 -92 9 -41 24 -3 19 44 -3 22 -6 57 -8 77
-1 21 -7 38 -12 38 -7 0 -10 -25 -8 -67z"/>
<path d="M8570 4215 c-12 -20 -20 -38 -17 -41 2 -3 15 11 27 31 12 20 20 38
17 41 -2 3 -15 -11 -27 -31z"/>
<path d="M9053 4053 c-13 -2 -23 -11 -23 -19 0 -8 -7 -14 -15 -14 -8 0 -15 -4
-15 -10 0 -5 6 -10 14 -10 7 0 19 -7 26 -15 7 -8 23 -15 36 -15 15 0 24 -6 24
-15 0 -18 16 -20 23 -2 4 8 8 9 14 2 8 -11 58 -35 71 -35 4 0 0 5 -8 11 -12 8
-12 12 -2 16 8 3 1 16 -24 40 -22 20 -43 32 -52 28 -19 -7 -42 13 -35 31 3 8
1 13 -3 13 -5 -1 -19 -4 -31 -6z"/>
<path d="M9606 3961 c-4 -51 -5 -95 -2 -98 6 -6 19 162 14 179 -3 7 -8 -29
-12 -81z"/>
<path d="M6897 3699 c7 -7 15 -10 18 -7 3 3 -2 9 -12 12 -14 6 -15 5 -6 -5z"/>
<path d="M6890 3640 c0 -5 5 -10 11 -10 5 0 7 5 4 10 -3 6 -8 10 -11 10 -2 0
-4 -4 -4 -10z"/>
<path d="M6870 3200 c0 -5 5 -10 10 -10 6 0 10 -7 10 -16 0 -11 -6 -13 -19 -9
-16 5 -18 2 -14 -15 3 -11 13 -20 22 -20 9 0 34 -9 55 -21 46 -24 57 -19 20
10 -19 15 -22 21 -10 21 9 0 16 5 16 10 0 6 -3 10 -7 10 -5 0 -21 11 -37 25
-31 26 -46 31 -46 15z"/>
<path d="M6785 3190 c3 -5 8 -10 11 -10 2 0 4 5 4 10 0 6 -5 10 -11 10 -5 0
-7 -4 -4 -10z"/>
<path d="M6870 3065 c0 -8 5 -15 10 -15 6 0 10 7 10 15 0 8 -4 15 -10 15 -5 0
-10 -7 -10 -15z"/>
<path d="M7073 2773 c-13 -2 -23 -10 -23 -18 0 -18 30 -12 42 8 5 9 8 16 6 16
-2 -1 -13 -4 -25 -6z"/>
<path d="M7002 2721 c4 -13 18 -16 19 -4 0 4 -5 9 -11 12 -7 2 -11 -2 -8 -8z"/>
<path d="M7120 2700 c-13 -8 -12 -10 3 -10 9 0 17 5 17 10 0 12 -1 12 -20 0z"/>
<path d="M7415 2150 c3 -5 11 -10 16 -10 6 0 7 5 4 10 -3 6 -11 10 -16 10 -6
0 -7 -4 -4 -10z"/>
<path d="M7311 1983 c-15 -16 -14 -18 17 -27 24 -8 28 1 9 25 -11 14 -14 14
-26 2z"/>
<path d="M7365 1969 c22 -24 48 -25 43 -2 -2 11 -14 18 -32 20 -27 2 -28 1
-11 -18z"/>
<path d="M7415 1924 c9 -9 18 -14 21 -11 9 9 -6 27 -22 27 -13 0 -13 -2 1 -16z"/>
<path d="M7400 1851 c0 -9 34 -21 60 -21 11 1 10 4 -4 15 -22 16 -56 20 -56 6z"/>
<path d="M7605 1810 c3 -5 10 -10 16 -10 5 0 9 5 9 10 0 6 -7 10 -16 10 -8 0
-12 -4 -9 -10z"/>
<path d="M7526 1763 c-6 -14 -5 -15 5 -6 7 7 10 15 7 18 -3 3 -9 -2 -12 -12z"/>
<path d="M8328 6323 c6 -2 18 -2 25 0 6 3 1 5 -13 5 -14 0 -19 -2 -12 -5z"/>
<path d="M7596 6261 c-4 -5 3 -7 14 -4 23 6 26 13 6 13 -8 0 -17 -4 -20 -9z"/>
<path d="M7428 6200 c-27 -68 -22 -78 17 -40 36 35 46 56 21 47 -10 -4 -16 2
-18 16 -2 17 -7 12 -20 -23z"/>
<path d="M8710 6090 c0 -5 5 -10 11 -10 5 0 7 5 4 10 -3 6 -8 10 -11 10 -2 0
-4 -4 -4 -10z"/>
<path d="M8048 6043 c7 -3 16 -2 19 1 4 3 -2 6 -13 5 -11 0 -14 -3 -6 -6z"/>
<path d="M8087 5984 c3 -9 9 -12 12 -7 3 4 10 11 15 16 5 4 0 7 -12 7 -15 0
-20 -4 -15 -16z"/>
<path d="M8055 5860 c-8 -13 9 -20 24 -11 10 6 9 10 -3 14 -8 3 -18 2 -21 -3z"/>
<path d="M9775 5700 c3 -5 2 -10 -3 -10 -5 0 -9 -6 -9 -14 0 -19 79 -45 85
-28 2 7 8 12 14 12 6 0 8 -6 5 -14 -7 -18 14 -26 61 -25 20 0 31 3 25 6 -7 2
-13 11 -13 18 0 20 -23 24 -38 6 -11 -14 -12 -14 -10 3 2 10 -4 20 -12 21 -8
2 -35 10 -59 19 -51 19 -54 19 -46 6z"/>
<path d="M9338 4883 c-10 -2 -18 -8 -18 -13 0 -5 -6 -7 -14 -4 -15 6 -24 -28
-31 -117 -2 -24 -6 -68 -9 -98 -5 -46 -4 -52 9 -41 8 6 17 20 20 31 4 11 11
17 16 14 5 -4 9 4 9 17 0 13 11 50 25 82 13 33 23 62 20 64 -5 5 -75 -142 -75
-156 0 -6 -4 -13 -9 -16 -11 -7 -4 29 16 72 8 18 14 47 13 65 -3 51 -1 57 26
82 15 14 25 24 23 24 -2 -1 -12 -3 -21 -6z"/>
<path d="M9338 4838 c-13 -13 -17 -17 -8 -10 9 6 24 12 33 12 9 0 19 5 22 10
12 19 -24 10 -47 -12z"/>
<path d="M9296 4619 c-17 -59 -26 -99 -25 -115 0 -11 9 12 19 51 10 38 17 71
15 74 -3 2 -6 -2 -9 -10z"/>
<path d="M9374 4538 l-29 -33 33 29 c17 17 32 31 32 33 0 8 -8 1 -36 -29z"/>
<path d="M9760 4111 c23 -13 100 -22 100 -12 0 11 -36 21 -80 21 -24 -1 -30
-3 -20 -9z"/>
<path d="M10055 4090 c11 -10 40 -22 65 -26 l45 -6 -37 26 c-20 14 -49 26 -65
26 -27 0 -27 0 -8 -20z"/>
<path d="M10011 4035 c-1 -21 15 -52 23 -45 2 3 -2 19 -9 35 -10 23 -14 25
-14 10z"/>
<path d="M10020 3964 c0 -8 5 -12 10 -9 6 3 10 10 10 16 0 5 -4 9 -10 9 -5 0
-10 -7 -10 -16z"/>
<path d="M5810 3900 c0 -5 7 -7 15 -4 8 4 15 8 15 10 0 2 -7 4 -15 4 -8 0 -15
-4 -15 -10z"/>
<path d="M5792 3855 c-6 -14 -7 -25 -2 -25 9 0 25 39 18 46 -3 2 -10 -7 -16
-21z"/>
<path d="M5820 3825 c0 -8 2 -15 4 -15 2 0 6 7 10 15 3 8 1 15 -4 15 -6 0 -10
-7 -10 -15z"/>
<path d="M5783 3794 c-15 -16 -17 -34 -4 -34 10 0 26 39 19 45 -1 2 -9 -3 -15
-11z"/>
<path d="M9891 3770 c-1 -8 -4 -31 -6 -50 -4 -31 -3 -33 6 -10 5 13 8 36 6 50
-2 14 -5 18 -6 10z"/>
<path d="M5740 3730 c-8 -5 -12 -12 -9 -15 4 -3 12 1 19 10 14 17 11 19 -10 5z"/>
<path d="M10216 3715 c17 -8 43 -17 58 -21 23 -5 26 -3 25 17 0 13 -3 19 -5
12 -4 -9 -13 -9 -30 -2 -14 5 -37 9 -52 8 l-27 -1 31 -13z"/>
<path d="M10190 3640 c0 -5 4 -10 9 -10 6 0 13 5 16 10 3 6 -1 10 -9 10 -9 0
-16 -4 -16 -10z"/>
<path d="M5746 3614 c-9 -23 -2 -28 13 -10 7 8 8 17 3 20 -6 3 -13 -1 -16 -10z"/>
<path d="M5717 3570 c-10 -36 -8 -90 2 -90 14 0 22 51 13 85 l-8 30 -7 -25z"/>
<path d="M5710 3460 c0 -5 5 -10 11 -10 5 0 7 5 4 10 -3 6 -8 10 -11 10 -2 0
-4 -4 -4 -10z"/>
<path d="M5667 3380 c-3 -11 -2 -20 3 -20 4 0 10 9 13 20 3 11 2 20 -3 20 -4
0 -10 -9 -13 -20z"/>
<path d="M5635 3380 c-3 -5 -1 -10 4 -10 6 0 11 5 11 10 0 6 -2 10 -4 10 -3 0
-8 -4 -11 -10z"/>
<path d="M5608 3130 c-6 -17 9 -66 18 -58 3 3 1 21 -3 39 -6 21 -11 28 -15 19z"/>
<path d="M5622 3030 c0 -14 2 -19 5 -12 2 6 2 18 0 25 -3 6 -5 1 -5 -13z"/>
<path d="M7084 1264 c3 -9 6 -25 6 -37 0 -16 3 -18 9 -9 10 17 2 62 -11 62 -6
0 -7 -7 -4 -16z"/>
<path d="M7116 1271 c-4 -7 -5 -15 -2 -18 9 -9 19 4 14 18 -4 11 -6 11 -12 0z"/>
<path d="M7170 1239 c0 -16 4 -28 9 -25 8 5 3 56 -5 56 -2 0 -4 -14 -4 -31z"/>
<path d="M7041 1238 c-5 -13 -7 -27 -4 -31 6 -11 33 12 33 29 0 24 -20 26 -29
2z"/>
<path d="M7218 1221 c-25 -24 -23 -26 22 -26 22 -1 40 3 40 9 0 5 -3 7 -6 3
-4 -3 -14 2 -23 13 -15 18 -17 18 -33 1z"/>
<path d="M7074 1145 c1 -46 14 -60 23 -25 3 11 9 18 13 15 5 -3 6 -14 3 -25
-3 -11 -1 -20 5 -20 5 0 12 9 15 21 5 18 11 20 36 14 32 -7 36 -1 25 29 -8 20
-30 21 -38 1 -8 -21 -21 -19 -50 10 -14 14 -27 25 -29 25 -2 0 -3 -20 -3 -45z"/>
<path d="M7222 1155 c0 -16 2 -22 5 -12 2 9 2 23 0 30 -3 6 -5 -1 -5 -18z"/>
<path d="M9190 749 c0 -5 5 -7 10 -4 6 3 10 8 10 11 0 2 -4 4 -10 4 -5 0 -10
-5 -10 -11z"/>
<path d="M7540 732 c0 -17 38 -44 45 -32 4 6 -1 18 -11 25 -22 16 -34 19 -34
7z"/>
<path d="M7664 685 c-10 -8 -14 -15 -8 -15 6 0 17 7 24 15 16 19 9 19 -16 0z"/>
<path d="M9207 563 c-10 -10 -8 -45 2 -39 11 7 21 46 12 46 -4 0 -11 -3 -14
-7z"/>
<path d="M8680 550 c0 -5 4 -10 9 -10 6 0 13 5 16 10 3 6 -1 10 -9 10 -9 0
-16 -4 -16 -10z"/>
<path d="M7635 510 c-3 -5 -1 -10 4 -10 6 0 11 5 11 10 0 6 -2 10 -4 10 -3 0
-8 -4 -11 -10z"/>
<path d="M7010 507 c0 -2 24 -19 53 -37 136 -85 139 -89 152 -177 4 -24 11
-43 16 -43 6 0 9 6 8 13 -4 31 0 38 15 25 8 -7 14 -15 13 -18 -1 -3 4 -15 11
-26 6 -12 9 -24 5 -27 -3 -4 2 -9 11 -13 15 -6 15 -7 -1 -20 -17 -12 -16 -13
7 -14 25 -1 25 -1 5 -16 -14 -11 -15 -15 -5 -14 8 1 24 2 35 1 16 -1 17 -3 5
-10 -8 -6 -17 -8 -21 -5 -4 2 -9 -3 -13 -11 -3 -8 2 -19 12 -24 9 -5 15 -11
12 -13 -3 -2 5 -20 17 -40 22 -38 23 -38 88 -38 57 0 65 2 65 19 0 11 -6 22
-12 25 -10 5 -10 7 0 12 20 9 14 26 -8 19 -15 -5 -18 -3 -14 9 3 8 -3 19 -15
26 -18 9 -19 13 -8 30 6 11 17 20 24 20 7 0 13 5 13 10 0 6 8 10 18 10 13 0 8
8 -17 30 -35 31 -47 38 -36 20 3 -5 0 -10 -7 -10 -15 0 -48 119 -51 182 -2 44
-12 46 -67 18 -34 -18 -40 -18 -54 -5 -21 21 -35 18 -29 -6 5 -19 3 -20 -18
-14 -13 4 -35 15 -49 25 -33 23 -160 92 -160 87z m391 -289 c1 -13 1 -26 0
-30 0 -4 6 -23 14 -42 17 -40 19 -60 6 -52 -8 5 -21 51 -36 119 -3 15 -1 27 5
27 5 0 11 -10 11 -22z"/>
<path d="M6916 458 c4 -7 18 -27 31 -44 13 -17 23 -35 23 -40 1 -15 130 -150
130 -136 0 7 -24 38 -52 70 -29 31 -69 81 -88 109 -19 29 -39 53 -43 53 -5 0
-5 -6 -1 -12z"/>
<path d="M7320 450 c0 -5 5 -10 10 -10 6 0 10 5 10 10 0 6 -4 10 -10 10 -5 0
-10 -4 -10 -10z"/>
<path d="M7205 440 c3 -5 8 -10 11 -10 2 0 4 5 4 10 0 6 -5 10 -11 10 -5 0 -7
-4 -4 -10z"/>
<path d="M7430 430 c0 -5 5 -10 10 -10 6 0 10 5 10 10 0 6 -4 10 -10 10 -5 0
-10 -4 -10 -10z"/>
<path d="M7600 430 c0 -5 5 -10 11 -10 5 0 7 5 4 10 -3 6 -8 10 -11 10 -2 0
-4 -4 -4 -10z"/>
<path d="M7460 390 c0 -5 5 -10 10 -10 6 0 10 5 10 10 0 6 -4 10 -10 10 -5 0
-10 -4 -10 -10z"/>
<path d="M8425 370 c-3 -6 1 -7 9 -4 18 7 21 14 7 14 -6 0 -13 -4 -16 -10z"/>
<path d="M9290 370 c0 -5 5 -10 10 -10 6 0 10 5 10 10 0 6 -4 10 -10 10 -5 0
-10 -4 -10 -10z"/>
<path d="M9345 370 c3 -5 14 -10 23 -10 15 0 15 2 2 10 -20 13 -33 13 -25 0z"/>
<path d="M7540 360 c0 -5 7 -10 16 -10 8 0 12 5 9 10 -3 6 -10 10 -16 10 -5 0
-9 -4 -9 -10z"/>
<path d="M9421 326 c-10 -11 -9 -14 1 -12 14 2 23 15 15 22 -2 2 -10 -2 -16
-10z"/>
<path d="M6950 315 c0 -5 9 -21 20 -35 11 -14 20 -20 20 -15 0 6 -9 21 -20 35
-11 14 -20 21 -20 15z"/>
<path d="M6996 287 c3 -10 9 -15 12 -12 3 3 0 11 -7 18 -10 9 -11 8 -5 -6z"/>
<path d="M9402 279 c1 -12 8 -24 15 -26 7 -3 9 3 6 17 -8 29 -25 37 -21 9z"/>
<path d="M9525 246 c-4 -10 -3 -53 4 -95 6 -43 9 -94 6 -114 -5 -30 -3 -37 10
-37 15 0 16 10 10 88 -11 133 -20 181 -30 158z"/>
<path d="M9385 230 c-3 -5 3 -10 15 -10 12 0 18 5 15 10 -3 6 -10 10 -15 10
-5 0 -12 -4 -15 -10z"/>
<path d="M7075 205 c51 -36 85 -81 85 -110 0 -19 11 -44 28 -64 25 -30 30 -32
84 -29 l57 3 -42 85 c-50 101 -46 94 -51 89 -2 -2 -1 -25 3 -51 12 -73 -15
-63 -99 39 -24 29 -60 53 -77 53 -4 0 1 -7 12 -15z"/>
<path d="M7541 94 c0 -11 3 -14 6 -6 3 7 2 16 -1 19 -3 4 -6 -2 -5 -13z"/>
</g>
</svg>
